<svg width="58" height="59" viewBox="0 0 58 59" fill="none" xmlns="http://www.w3.org/2000/svg">
<path d="M54.2138 14.9275C54.2947 23.4127 50.1031 33.234 41.2273 34.6262C37.1015 35.2805 32.7029 33.2479 30.8406 29.3128C29.3959 26.2582 30.658 22.3036 34.2831 22.3228L34.2835 22.3229C36.8308 22.4389 39.1017 23.8711 40.3777 26.1666C45.2298 34.7562 35.5414 42.6647 28.2658 43.9192C19.8267 45.3851 11.446 42.0345 5.84445 35.6938C5.03083 34.7748 3.55471 36.121 4.36838 37.04C10.4435 43.9139 19.4508 47.4913 28.5781 45.8928C36.0121 44.5998 43.8881 38.6038 43.3966 29.7439C43.291 27.8559 42.7124 26.0594 41.7216 24.5411C40.7308 23.0228 39.3631 21.8381 37.7609 21.1094C35.1649 19.9251 31.3421 19.8652 29.315 22.5945C26.976 25.7034 28.6093 30.1415 30.6693 32.6273C33.0048 35.3931 36.3869 36.8987 39.9685 36.7675C50.3967 36.3523 56.1944 24.9281 56.0937 15.0108C56.0798 13.7323 54.2016 13.6272 54.2144 14.9274L54.2138 14.9275Z" fill="#4DA528"/>
<path d="M8.63746 45.0046C7.10279 41.9676 5.74124 38.8272 4.55952 35.5997L3.84908 37.0418C7.72182 36.3581 11.5486 35.3139 15.2857 33.9214C16.4346 33.4896 16.1333 31.5053 14.9742 31.9481C11.2394 33.3429 7.41421 34.3876 3.54322 35.0704C3.25618 35.1414 3.00765 35.347 2.86863 35.629C2.73001 35.9112 2.71603 36.2387 2.83058 36.5188C4.00527 39.7428 5.35853 42.8804 6.88468 45.9153C7.44575 47.0264 9.18095 46.1089 8.6078 44.9942L8.63746 45.0046Z" fill="#4DA528"/>
</svg>
