<svg width="18" height="16" viewBox="0 0 18 16" fill="none" xmlns="http://www.w3.org/2000/svg">
<path d="M15.6705 0.0585938H14.0822V1.64683C14.0822 1.96448 13.8175 2.17624 13.5528 2.17624C13.2881 2.17624 13.0234 1.96448 13.0234 1.64683V0.0585938H4.55283V1.64683C4.55283 1.96448 4.28812 2.17624 4.02341 2.17624C3.75871 2.17624 3.494 1.96448 3.494 1.64683V0.0585938H1.90577C1.11165 0.0585938 0.529297 0.746829 0.529297 1.64683V3.55271H17.4705V1.64683C17.4705 0.746829 16.5175 0.0585938 15.6705 0.0585938ZM0.529297 4.66448V14.3527C0.529297 15.3057 1.11165 15.9409 1.95871 15.9409H15.7234C16.5705 15.9409 17.5234 15.2527 17.5234 14.3527V4.66448H0.529297ZM5.24106 13.5586H3.97047C3.75871 13.5586 3.54694 13.3998 3.54694 13.1351V11.8115C3.54694 11.5998 3.70577 11.388 3.97047 11.388H5.294C5.50577 11.388 5.71753 11.5468 5.71753 11.8115V13.1351C5.66459 13.3998 5.50577 13.5586 5.24106 13.5586ZM5.24106 8.79389H3.97047C3.75871 8.79389 3.54694 8.63506 3.54694 8.37036V7.04683C3.54694 6.83506 3.70577 6.6233 3.97047 6.6233H5.294C5.50577 6.6233 5.71753 6.78212 5.71753 7.04683V8.37036C5.66459 8.63506 5.50577 8.79389 5.24106 8.79389ZM9.47635 13.5586H8.15283C7.94106 13.5586 7.7293 13.3998 7.7293 13.1351V11.8115C7.7293 11.5998 7.88812 11.388 8.15283 11.388H9.47635C9.68812 11.388 9.89989 11.5468 9.89989 11.8115V13.1351C9.89989 13.3998 9.74106 13.5586 9.47635 13.5586ZM9.47635 8.79389H8.15283C7.94106 8.79389 7.7293 8.63506 7.7293 8.37036V7.04683C7.7293 6.83506 7.88812 6.6233 8.15283 6.6233H9.47635C9.68812 6.6233 9.89989 6.78212 9.89989 7.04683V8.37036C9.89989 8.63506 9.74106 8.79389 9.47635 8.79389ZM13.7116 13.5586H12.3881C12.1764 13.5586 11.9646 13.3998 11.9646 13.1351V11.8115C11.9646 11.5998 12.1234 11.388 12.3881 11.388H13.7116C13.9234 11.388 14.1352 11.5468 14.1352 11.8115V13.1351C14.1352 13.3998 13.9764 13.5586 13.7116 13.5586ZM13.7116 8.79389H12.3881C12.1764 8.79389 11.9646 8.63506 11.9646 8.37036V7.04683C11.9646 6.83506 12.1234 6.6233 12.3881 6.6233H13.7116C13.9234 6.6233 14.1352 6.78212 14.1352 7.04683V8.37036C14.1352 8.63506 13.9764 8.79389 13.7116 8.79389Z" fill="#4DA528"/>
</svg>
