<svg width="30" height="30" viewBox="0 0 30 30" fill="none" xmlns="http://www.w3.org/2000/svg">
<path d="M0.9375 5.28861H15.2112C15.6414 7.24676 17.3901 8.71682 19.4756 8.71682C21.561 8.71682 23.3097 7.24682 23.7399 5.28861H29.0625C29.5802 5.28861 30 4.86885 30 4.35111C30 3.83338 29.5802 3.41361 29.0625 3.41361H23.7394C23.3084 1.45647 21.5573 -0.0145302 19.4756 -0.0145302C17.3927 -0.0145302 15.6424 1.45623 15.2116 3.41361H0.9375C0.419766 3.41361 0 3.83338 0 4.35111C0 4.86885 0.419766 5.28861 0.9375 5.28861ZM16.985 4.35357C16.985 4.35023 16.985 4.34684 16.985 4.3435C16.9891 2.97434 18.1063 1.86053 19.4756 1.86053C20.8429 1.86053 21.9601 2.97281 21.966 4.34133L21.9662 4.3551C21.964 5.7266 20.8476 6.84188 19.4756 6.84188C18.1041 6.84188 16.988 5.72772 16.9849 4.35703L16.985 4.35357ZM29.0625 24.7113H23.7394C23.3084 22.7542 21.5573 21.2832 19.4756 21.2832C17.3927 21.2832 15.6424 22.754 15.2116 24.7113H0.9375C0.419766 24.7113 0 25.131 0 25.6488C0 26.1666 0.419766 26.5863 0.9375 26.5863H15.2112C15.6414 28.5445 17.3901 30.0145 19.4756 30.0145C21.561 30.0145 23.3097 28.5445 23.7399 26.5863H29.0625C29.5802 26.5863 30 26.1666 30 25.6488C30 25.131 29.5802 24.7113 29.0625 24.7113ZM19.4756 28.1395C18.1041 28.1395 16.988 27.0254 16.9849 25.6547L16.985 25.6513C16.985 25.6479 16.985 25.6445 16.985 25.6412C16.9891 24.272 18.1063 23.1582 19.4756 23.1582C20.8429 23.1582 21.9601 24.2705 21.966 25.6389L21.9662 25.6527C21.9642 27.0244 20.8477 28.1395 19.4756 28.1395ZM29.0625 14.0625H14.7888C14.3586 12.1044 12.6099 10.6344 10.5244 10.6344C8.43896 10.6344 6.69029 12.1044 6.2601 14.0625H0.9375C0.419766 14.0625 0 14.4823 0 15C0 15.5178 0.419766 15.9375 0.9375 15.9375H6.26057C6.69164 17.8946 8.44266 19.3656 10.5244 19.3656C12.6073 19.3656 14.3576 17.8948 14.7884 15.9375H29.0625C29.5802 15.9375 30 15.5178 30 15C30 14.4823 29.5802 14.0625 29.0625 14.0625ZM13.015 14.9975C13.015 15.0009 13.015 15.0043 13.015 15.0076C13.0109 16.3768 11.8937 17.4906 10.5244 17.4906C9.15715 17.4906 8.03988 16.3783 8.03397 15.0098L8.03379 14.9961C8.03584 13.6245 9.15234 12.5094 10.5244 12.5094C11.8959 12.5094 13.012 13.6235 13.0151 14.9942L13.015 14.9975Z" fill="#fff"/>
</svg>
