<svg width="26" height="26" viewBox="0 0 26 26" fill="none" xmlns="http://www.w3.org/2000/svg">
<g clip-path="url(#clip0_555_41)">
<path d="M6.51865 13.7905H5.35266C5.04678 13.7905 4.77066 13.9726 4.64966 14.2531L1.42188 21.7689L9.08746 17.8538C8.16983 16.584 7.26192 15.1836 6.51865 13.7905Z" fill="#4DA528"/>
<path d="M21.3486 14.2531C21.2278 13.9726 20.9514 13.7905 20.6458 13.7905H19.4798C18.0761 16.4208 16.0312 19.139 14.7303 20.6344C13.8155 21.6838 12.1814 21.6826 11.2679 20.6344C11.1745 20.5271 10.6867 19.9624 10.0148 19.0939L8.63281 19.8001L13.8605 25.0177L23.766 19.8824L21.3486 14.2531Z" fill="#4DA528"/>
<path d="M0.479444 23.9654L0.0624821 24.9364C-0.153338 25.4388 0.216413 26 0.765287 26H11.9905C12.0607 25.9478 12.0615 25.951 12.4384 25.7556L7.203 20.5311L0.479444 23.9654Z" fill="#4DA528"/>
<path d="M25.9381 24.9364L24.3718 21.2892L15.2852 26H25.2353C25.783 26 26.1543 25.4398 25.9381 24.9364Z" fill="#4DA528"/>
<path d="M13.7638 6.87193C13.7638 6.451 13.4206 6.10883 12.9991 6.10883C12.5773 6.10883 12.2344 6.451 12.2344 6.87193C12.2344 7.29266 12.5773 7.63504 12.9991 7.63504C13.4206 7.63504 13.7638 7.29266 13.7638 6.87193Z" fill="#4DA528"/>
<path d="M13.5763 19.5821C13.8338 19.2866 19.8813 12.291 19.8813 7.4823C19.8813 -2.43353 6.11719 -2.55453 6.11719 7.4823C6.11719 12.291 12.1647 19.2866 12.4222 19.5821C12.7271 19.9318 13.272 19.9314 13.5763 19.5821ZM10.7052 6.87194C10.7052 5.60955 11.7343 4.58261 12.9992 4.58261C14.264 4.58261 15.2931 5.60955 15.2931 6.87194C15.2931 8.13413 14.264 9.16106 12.9992 9.16106C11.7343 9.16106 10.7052 8.13413 10.7052 6.87194Z" fill="#4DA528"/>
</g>
<defs>
<clipPath id="clip0_555_41">
<rect width="26" height="26" fill="white"/>
</clipPath>
</defs>
</svg>
