<svg width="24" height="24" viewBox="0 0 24 24" fill="none" xmlns="http://www.w3.org/2000/svg">
<path d="M16.3329 4.01578H14.5055C14.3819 5.09086 13.9041 6.08531 13.1287 6.86067L6.58991 13.3994L2.37214 9.18164C2.09656 9.981 1.95312 10.8248 1.95312 11.6827C1.95312 15.9103 5.39253 19.3497 9.62014 19.3497H10.766L15.7626 24V19.3498H16.3329C20.5605 19.3498 23.9998 15.9104 23.9998 11.6828C23.9998 7.45523 20.5605 4.01578 16.3329 4.01578ZM10.9069 12.6644H9.41942V11.2569H10.9069V12.6644ZM13.9568 12.6644H12.4693V11.2569H13.9568V12.6644ZM17.0067 12.6644H15.5192V11.2569H17.0067V12.6644Z" fill="#4DA528"/>
<path d="M12.1676 5.89945C13.5154 4.55166 13.5154 2.35866 12.1676 1.01086C10.8198 -0.336891 8.62683 -0.336891 7.27903 1.01086L6.59006 1.69987L5.90105 1.01086C4.55325 -0.336984 2.36025 -0.336937 1.01245 1.01091C0.359578 1.66373 0 2.53181 0 3.45516C0 4.3785 0.359531 5.24653 1.01245 5.89945L6.59002 11.477L12.1676 5.89945Z" fill="#4DA528"/>
</svg>
