<svg width="29" height="29" viewBox="0 0 29 29" fill="none" xmlns="http://www.w3.org/2000/svg">
<g clip-path="url(#clip0_555_27)">
<path d="M5.31845 4.96851C4.75731 4.96851 4.30078 5.42503 4.30078 5.98623C4.30078 6.54737 4.75731 7.0039 5.31845 7.0039C5.87965 7.0039 6.33618 6.54737 6.33618 5.98623C6.33618 5.42503 5.87965 4.96851 5.31845 4.96851Z" fill="#4DA528"/>
<path d="M20.8885 27.1227C21.3568 25.9929 20.8205 24.6974 19.6908 24.2291C18.561 23.7608 17.2655 24.2971 16.7972 25.4269C16.3289 26.5567 16.8651 27.8522 17.9949 28.3205C19.1246 28.7888 20.4201 28.2525 20.8885 27.1227Z" fill="#4DA528"/>
<path d="M14.8686 26.2688C14.8686 26.0405 14.889 25.8171 14.9263 25.5993H3.45076C2.51864 25.5993 1.76027 24.8409 1.76027 23.9087C1.76027 22.9765 2.51864 22.2181 3.45076 22.2181H11.3616C13.1603 22.2181 14.6237 20.7548 14.6237 18.9561C14.6237 17.1575 13.1604 15.6941 11.3616 15.6941H7.878L6.83215 17.4426H11.3616C12.1962 17.4426 12.8751 18.1216 12.8751 18.9561C12.8751 19.7907 12.1962 20.4697 11.3616 20.4697H3.45076C1.55449 20.4697 0.0117188 22.0124 0.0117188 23.9087C0.0117188 25.805 1.55449 27.3477 3.45076 27.3477H15.0191C14.9217 27.0045 14.8686 26.6428 14.8686 26.2688Z" fill="#4DA528"/>
<path d="M28.9979 14.1671C28.9841 13.8227 28.7691 13.5185 28.449 13.3905L19.156 9.67326C18.8867 9.5656 18.5814 9.59841 18.3412 9.76107C18.101 9.92374 17.957 10.1949 17.957 10.485V22.4046C18.2383 22.341 18.5305 22.3064 18.8308 22.3064C19.1314 22.3064 19.4239 22.3412 19.7055 22.4049V19.3569L28.513 14.9853C28.8218 14.8321 29.0117 14.5116 28.9979 14.1671Z" fill="#4DA528"/>
<path d="M10.722 5.87829C10.722 2.9175 8.32178 0.517288 5.361 0.517288C2.40021 0.517288 0 2.9175 0 5.87829V5.90053C0 6.9707 0.286341 8.02136 0.829321 8.94358L4.90894 15.8723C5.09361 16.1859 5.54669 16.1875 5.73351 15.8751L9.87151 8.95688C10.4281 8.02645 10.722 6.9625 10.722 5.87829ZM5.31885 8.7524C3.79356 8.7524 2.55263 7.51148 2.55263 5.98619C2.55263 4.4609 3.79356 3.21997 5.31885 3.21997C6.84413 3.21997 8.08506 4.4609 8.08506 5.98619C8.08506 7.51153 6.84413 8.7524 5.31885 8.7524Z" fill="#4DA528"/>
</g>
<defs>
<clipPath id="clip0_555_27">
<rect width="29" height="29" fill="white"/>
</clipPath>
</defs>
</svg>
