<svg width="23" height="29" viewBox="0 0 23 29" fill="none" xmlns="http://www.w3.org/2000/svg">
<path d="M11.3755 28.0796L10.9537 27.8879C7.22998 26.1953 4.03648 23.6855 1.46243 20.4275C0.584778 19.317 0.101562 17.9205 0.101562 16.495V0.89209L1.57975 1.52631C3.38185 2.29959 4.84096 2.65968 6.17096 2.65968C8.49942 2.65968 10.809 1.24388 10.832 1.22961L11.3755 0.892754L11.9286 1.21501C11.9513 1.22812 14.347 2.60757 16.6666 2.60757C18.3429 2.60757 19.9497 2.02745 21.1623 1.522L22.6303 0.910343V16.6449C22.6303 17.9903 22.2148 19.2768 21.4289 20.3664C19.0286 23.692 15.7898 26.2269 11.8028 27.9002L11.3755 28.0796ZM2.22177 4.05075V16.495C2.22177 17.4454 2.54286 18.3751 3.12614 19.1131C5.39104 21.9795 8.17617 24.214 11.4095 25.7608C14.8358 24.2421 17.6266 22.0114 19.7095 19.1253C20.233 18.3997 20.5099 17.5418 20.5099 16.6449V4.03681C19.3754 4.41813 18.0647 4.72778 16.6666 4.72778C14.4898 4.72778 12.3786 3.82092 11.4075 3.33737C10.4514 3.84116 8.37414 4.78005 6.17096 4.78005C4.73127 4.78021 3.36177 4.44236 2.22177 4.05075ZM17.9463 10.6716L16.4471 9.1723L10.2131 15.4066L6.7617 11.9553L5.26228 13.4545L10.2131 18.4052L17.9463 10.6716Z" fill="#4DA528"/>
</svg>
