<svg width="28" height="28" viewBox="0 0 28 28" fill="none" xmlns="http://www.w3.org/2000/svg">
<g clip-path="url(#clip0_734_1332)">
<path d="M27.9537 22.4753L25.3333 7.61484C25.1529 6.59137 24.4708 5.74568 23.5087 5.3527L17.2561 2.79865C16.9868 2.68867 16.7063 2.62064 16.4236 2.59259L16.086 0.678043C16.0074 0.231905 15.5822 -0.0659215 15.1358 0.012664C14.6896 0.0913041 14.3917 0.51677 14.4704 0.962908L14.808 2.87767C14.5558 2.99902 14.3189 3.1563 14.106 3.34803L13.3978 3.98585L13.2928 3.89059C13.0773 3.69513 12.837 3.53523 12.5809 3.41218L13.0128 0.962908C13.0915 0.51677 12.7936 0.0913041 12.3474 0.012664C11.9014 -0.0662496 11.4758 0.23185 11.3972 0.678043L10.9653 3.12748C10.6868 3.15526 10.4103 3.22204 10.1446 3.32944L3.83571 5.87901C2.86791 6.27013 2.18186 7.11735 2.00057 8.14541L0.0459934 19.2306C-0.241989 20.864 0.85252 22.427 2.48581 22.715L10.4745 24.1236L10.7197 25.5142C10.9766 26.9716 12.2488 28 13.6803 28C13.853 28 14.0282 27.985 14.2041 27.954L25.5139 25.9598C27.1472 25.6717 28.2417 24.1087 27.9537 22.4753ZM25.229 24.344L13.9191 26.3382C13.5595 26.4016 13.1967 26.3212 12.8975 26.1117C12.5984 25.9023 12.3987 25.5888 12.3353 25.2292L12.1938 24.4268L13.7956 24.7092C13.972 24.7403 14.1487 24.7557 14.3242 24.7557C14.9357 24.7557 15.5317 24.569 16.043 24.211C16.7012 23.7502 17.1404 23.0606 17.2799 22.2695L19.2355 11.1789C19.416 10.1554 19.0642 9.12743 18.2946 8.42913L14.6188 5.09392L15.2037 4.56718C15.4583 4.33793 15.7883 4.21701 16.1217 4.21701C16.2955 4.21701 16.4702 4.24994 16.6356 4.31747L22.8882 6.87153C23.3255 7.05019 23.6356 7.43453 23.7176 7.89976L26.3379 22.7602C26.4689 23.5026 25.9714 24.2131 25.229 24.344ZM1.66162 19.5155L3.6163 8.43028C3.69871 7.96298 4.01054 7.57787 4.45044 7.40008L10.6538 4.89311L10.476 5.90154C10.3974 6.34768 10.6953 6.77315 11.1414 6.85179C11.1896 6.86032 11.2375 6.86437 11.2848 6.86437C11.6754 6.86437 12.0215 6.58431 12.0917 6.18635L12.2696 5.17754L17.1922 9.64411C17.542 9.96152 17.7019 10.4288 17.6199 10.894L15.6643 21.9845C15.6009 22.3442 15.4012 22.6576 15.1021 22.867C14.8029 23.0765 14.4402 23.1569 14.0805 23.0935L2.77062 21.0993C2.02824 20.9684 1.53075 20.2579 1.66162 19.5155Z" fill="#4DA528"/>
<path d="M8.26177 19.0775L8.1308 19.8203C8.07835 20.1178 8.27697 20.4014 8.57442 20.4538C8.60652 20.4595 8.63846 20.4622 8.67001 20.4622C8.93038 20.4622 9.16116 20.2755 9.20791 20.0102L9.34616 19.2263C9.90818 19.2245 10.4446 19.0684 10.9206 18.7642C11.4872 18.4021 11.9234 17.8531 12.1488 17.2182C12.6076 15.9257 12.1145 14.6443 10.8926 13.9539C10.6906 13.8398 10.5049 13.7319 10.3332 13.629L10.8795 10.5303C11.2636 10.6717 11.4847 10.9048 11.6318 11.0602C11.6737 11.1044 11.7133 11.1463 11.7538 11.1837C11.9756 11.3887 12.3215 11.3751 12.5265 11.1534C12.7316 10.9316 12.718 10.5856 12.4963 10.3806C12.4825 10.3679 12.4538 10.3376 12.4261 10.3083C12.2278 10.0988 11.8133 9.66113 11.0712 9.44325L11.1841 8.80265C11.2366 8.50521 11.038 8.2216 10.7405 8.16915C10.4431 8.11676 10.1595 8.31528 10.107 8.61278L9.98272 9.31764C9.87007 9.32185 9.75353 9.33027 9.63179 9.34471C8.73148 9.45151 7.9634 10.0713 7.62718 10.9624C7.32159 11.7723 7.446 12.6258 7.95191 13.1898C8.23421 13.5045 8.60291 13.812 9.12834 14.1628L8.4517 18.0003C7.91905 17.8775 7.59437 17.7055 7.07353 17.2166C6.85336 17.0099 6.50724 17.0208 6.30053 17.241C6.09381 17.4612 6.10469 17.8073 6.32492 18.014C7.03383 18.6794 7.54794 18.9185 8.26177 19.0775ZM11.118 16.8524C10.9046 17.4536 10.3416 18.035 9.54101 18.1212L10.1304 14.7784C10.2031 14.8203 10.2777 14.8629 10.3544 14.9062C11.4785 15.5413 11.2231 16.5564 11.118 16.8524ZM8.7661 12.4594C8.53389 12.2005 8.4896 11.7748 8.65049 11.3484C8.80055 10.9507 9.171 10.5008 9.76058 10.4309C9.7695 10.4298 9.77803 10.4291 9.78689 10.4281L9.33845 12.9713C9.09914 12.7899 8.91222 12.6222 8.7661 12.4594Z" fill="#4DA528"/>
</g>
<defs>
<clipPath id="clip0_734_1332">
<rect width="28" height="28" fill="white"/>
</clipPath>
</defs>
</svg>
