<svg width="27" height="27" viewBox="0 0 27 27" fill="none" xmlns="http://www.w3.org/2000/svg">
<path d="M19.5625 22.9972C18.5163 22.9972 17.6641 22.145 17.6641 21.0988C17.6641 20.0525 18.5163 19.2003 19.5625 19.2003C20.6088 19.2003 21.4609 20.0525 21.4609 21.0988C21.4609 22.145 20.6088 22.9972 19.5625 22.9972ZM19.5625 20.4659C19.214 20.4659 18.9297 20.7503 18.9297 21.0988C18.9297 21.4472 19.214 21.7316 19.5625 21.7316C19.911 21.7316 20.1953 21.4472 20.1953 21.0988C20.1953 20.7503 19.911 20.4659 19.5625 20.4659Z" fill="#4DA528"/>
<path d="M25.9976 8.47207L24.6746 9.5757C24.4949 9.72588 24.2342 9.72588 24.0545 9.5757L22.7315 8.47207C22.4632 8.24848 22.4269 7.84938 22.6505 7.58107C22.8741 7.31276 23.274 7.27648 23.5423 7.50091L24.3641 8.18688L25.186 7.50091C25.4543 7.27648 25.8534 7.31276 26.0778 7.58107C26.3014 7.84938 26.266 8.24848 25.9976 8.47207Z" fill="#4DA528"/>
<path d="M20.3594 11.5847C20.7089 11.5847 20.9922 11.3014 20.9922 10.9519C20.9922 10.6024 20.7089 10.3191 20.3594 10.3191C20.0099 10.3191 19.7266 10.6024 19.7266 10.9519C19.7266 11.3014 20.0099 11.5847 20.3594 11.5847Z" fill="#4DA528"/>
<path d="M20.3594 14.0054C20.7089 14.0054 20.9922 13.7221 20.9922 13.3726C20.9922 13.0231 20.7089 12.7397 20.3594 12.7397C20.0099 12.7397 19.7266 13.0231 19.7266 13.3726C19.7266 13.7221 20.0099 14.0054 20.3594 14.0054Z" fill="#4DA528"/>
<path d="M25 8.66357H23.7344C23.7344 5.75601 21.3685 3.39014 18.4609 3.39014H17.4062C17.0569 3.39014 16.7734 3.10664 16.7734 2.75732C16.7734 2.40801 17.0569 2.12451 17.4062 2.12451H18.4609C22.0663 2.12451 25 5.05823 25 8.66357Z" fill="#4DA528"/>
<path d="M9.78516 13.2891C7.10963 13.2891 4.93359 11.113 4.93359 8.4375C4.93359 5.76197 7.10963 3.58594 9.78516 3.58594C12.4607 3.58594 14.6367 5.76197 14.6367 8.4375C14.6367 11.113 12.4607 13.2891 9.78516 13.2891ZM9.78516 4.85156C7.80741 4.85156 6.19922 6.45975 6.19922 8.4375C6.19922 10.4153 7.80741 12.0234 9.78516 12.0234C11.7629 12.0234 13.3711 10.4153 13.3711 8.4375C13.3711 6.45975 11.7629 4.85156 9.78516 4.85156Z" fill="#4DA528"/>
<path d="M15.4946 6.23278C14.5901 3.89306 12.296 2.32031 9.78581 2.32031C7.29337 2.32031 5.07094 3.81037 4.12509 6.11634L2.95312 5.63541C4.09641 2.85272 6.77784 1.05469 9.78666 1.05469C12.8149 1.05469 15.5832 2.95228 16.675 5.77631L15.4946 6.23278Z" fill="#4DA528"/>
<path d="M15.6914 11.8269C14.4114 11.8269 13.3711 10.7866 13.3711 9.50659V7.81909C13.3711 6.53912 14.4114 5.49878 15.6914 5.49878C16.9714 5.49878 18.0117 6.53912 18.0117 7.81909V9.50659C18.0117 10.7866 16.9714 11.8269 15.6914 11.8269ZM15.6914 6.7644C15.1101 6.7644 14.6367 7.23775 14.6367 7.81909V9.50659C14.6367 10.0879 15.1101 10.5613 15.6914 10.5613C16.2728 10.5613 16.7461 10.0879 16.7461 9.50659V7.81909C16.7461 7.23775 16.2728 6.7644 15.6914 6.7644Z" fill="#4DA528"/>
<path d="M3.87891 11.8269C2.59894 11.8269 1.55859 10.7866 1.55859 9.50659V7.81909C1.55859 6.53912 2.59894 5.49878 3.87891 5.49878C5.15887 5.49878 6.19922 6.53912 6.19922 7.81909V9.50659C6.19922 10.7866 5.15887 11.8269 3.87891 11.8269ZM3.87891 6.7644C3.29756 6.7644 2.82422 7.23775 2.82422 7.81909V9.50659C2.82422 10.0879 3.29756 10.5613 3.87891 10.5613C4.46025 10.5613 4.93359 10.0879 4.93359 9.50659V7.81909C4.93359 7.23775 4.46025 6.7644 3.87891 6.7644Z" fill="#4DA528"/>
<path d="M22.7166 25.9453H14.3483C13.6488 25.9453 12.9941 25.6348 12.5511 25.0931C12.1081 24.5514 11.9352 23.8477 12.0744 23.1626L13.0768 18.2384C13.2961 17.1627 14.2529 16.3813 15.3507 16.3813H23.719C24.4185 16.3813 25.0732 16.6918 25.5162 17.2335C25.9591 17.7752 26.1321 18.4789 25.9929 19.164L24.9905 24.0873C24.7711 25.1639 23.8143 25.9453 22.7166 25.9453ZM15.3507 17.647C14.8512 17.647 14.4166 18.0022 14.3171 18.4907L13.3147 23.4148C13.2514 23.7262 13.3307 24.046 13.5315 24.2923C13.7324 24.5387 14.0302 24.6796 14.3483 24.6796H22.7166C23.2161 24.6796 23.6506 24.3244 23.7502 23.835L24.7526 18.9118C24.8159 18.6004 24.7365 18.2806 24.5357 18.0343C24.3349 17.7879 24.0371 17.647 23.719 17.647H15.3507Z" fill="#4DA528"/>
<path d="M14.3481 25.9453H9.19531C8.846 25.9453 8.5625 25.6618 8.5625 25.3125C8.5625 24.9632 8.846 24.6797 9.19531 24.6797H14.3481V25.9453Z" fill="#4DA528"/>
<path d="M5.95026 25.9453H4.21888C3.3127 25.9453 2.44785 25.5555 1.8471 24.8746C1.24635 24.1945 0.966229 23.2883 1.07929 22.3889L1.47248 19.2476C1.55601 18.5785 1.92642 17.9795 2.48751 17.6057L6.45904 14.958C8.47392 13.6147 11.0997 13.6147 13.1145 14.958L13.4335 15.1706C13.7246 15.3647 13.803 15.757 13.609 16.0481C13.4149 16.3392 13.0226 16.4177 12.7315 16.2236L12.4125 16.011C10.8221 14.9512 8.75067 14.9504 7.1602 16.011L3.18782 18.6587C2.93301 18.8283 2.7651 19.1 2.72713 19.4037L2.33395 22.545C2.26645 23.085 2.43435 23.6284 2.79464 24.0376C3.15576 24.4451 3.67382 24.6797 4.21804 24.6797H5.94942C6.13926 24.6797 6.30801 24.5903 6.41348 24.4325C6.51895 24.2755 6.53835 24.0848 6.46748 23.9093L5.14448 20.6575C5.01285 20.3335 5.1681 19.9648 5.4921 19.8332C5.81526 19.7016 6.18482 19.8577 6.3156 20.1808L7.6386 23.4335C7.8681 23.9971 7.80229 24.635 7.46226 25.1395C7.12307 25.6441 6.55692 25.9453 5.94857 25.9453H5.95026Z" fill="#4DA528"/>
<path d="M9.78584 18.8629C8.80963 18.8629 7.93466 18.36 7.44359 17.5163L6.25391 15.4719L7.34825 14.8357L8.53794 16.8801C8.7995 17.329 9.26525 17.5973 9.78584 17.5973C10.3064 17.5973 10.7722 17.3298 11.0338 16.8801L12.2226 14.8357L13.3169 15.4719L12.1281 17.5163C11.637 18.36 10.7612 18.8629 9.78584 18.8629Z" fill="#4DA528"/>
</svg>
