<svg width="25" height="25" viewBox="0 0 25 25" fill="none" xmlns="http://www.w3.org/2000/svg">
<g clip-path="url(#clip0_734_1330)">
<path d="M18.7988 24.5996C22.2168 24.5996 25 21.8164 25 18.3984C25 14.9854 22.2266 12.207 18.8184 12.1973C17.8223 11.5039 16.5625 10.9717 15.1221 10.6201C16.1523 9.53614 16.7871 8.06641 16.7871 6.45508C16.7871 3.11524 14.0723 0.400391 10.7324 0.400391C7.39258 0.400391 4.67773 3.11524 4.67773 6.45508C4.67773 8.06641 5.3125 9.53125 6.34277 10.6201C4.75586 11.001 3.39355 11.6113 2.35352 12.4072C0.810547 13.5889 0 15.1611 0 16.9678V21.4844C0 23.2031 1.5918 24.5996 3.5498 24.5996M23.7305 18.3984C23.7305 21.1182 21.5186 23.3301 18.7988 23.3301C16.0791 23.3301 13.8672 21.1182 13.8672 18.3984C13.8672 15.6787 16.0791 13.4668 18.7988 13.4668C21.5186 13.4668 23.7305 15.6787 23.7305 18.3984ZM10.7275 1.66992C13.3691 1.66992 15.5127 3.81836 15.5127 6.45508C15.5127 9.0918 13.3643 11.2402 10.7275 11.2402C8.09082 11.2402 5.94238 9.0918 5.94238 6.45508C5.94238 3.81836 8.09082 1.66992 10.7275 1.66992ZM1.26953 16.9678C1.26953 15.5518 1.89453 14.3604 3.12012 13.418C4.22363 12.5732 5.77637 11.9629 7.62207 11.6553C8.53027 12.2022 9.59473 12.5147 10.7275 12.5147C11.8604 12.5147 12.9248 12.2022 13.833 11.6553C14.9414 11.8408 15.9473 12.1338 16.8115 12.5244C14.3652 13.3545 12.6025 15.6738 12.6025 18.3984C12.6025 20.4053 13.5645 22.1924 15.0488 23.3301H3.5498C2.29004 23.3301 1.26953 22.5 1.26953 21.4844V16.9678ZM18.0176 19.0088L20.9131 16.1133C21.1621 15.8643 21.5625 15.8643 21.8115 16.1133C22.0605 16.3623 22.0605 16.7627 21.8115 17.0117L18.4668 20.3565C18.3496 20.4736 18.1885 20.542 18.0176 20.542C17.8516 20.542 17.6855 20.4736 17.5684 20.3565L15.791 18.5791C15.542 18.3301 15.542 17.9297 15.791 17.6807C16.04 17.4316 16.4404 17.4316 16.6895 17.6807L18.0176 19.0088Z" fill="#4DA528"/>
</g>
<defs>
<clipPath id="clip0_734_1330">
<rect width="25" height="25" fill="white"/>
</clipPath>
</defs>
</svg>
