<svg width="1920" height="57" viewBox="0 0 1920 57" fill="none" xmlns="http://www.w3.org/2000/svg">
<path d="M402.442 37.335C395.368 37.3603 388.297 38.0922 383.574 36.3424C382.394 35.9933 381.214 35.6441 381.213 35.2908C381.211 34.9375 381.21 34.5841 380.03 34.235C378.848 33.5326 376.492 33.8943 372.955 33.9069C367.06 33.928 364.698 32.8764 359.98 32.1866C356.44 31.4925 352.902 31.1518 349.365 31.1644C344.65 31.1813 342.294 31.8964 339.94 32.9648C337.585 33.6799 336.408 34.3908 332.871 34.4034C331.692 34.4076 329.334 34.416 328.155 34.4202C322.26 34.4413 316.366 34.4623 310.471 34.4834C305.755 34.5002 302.217 34.1595 297.501 34.1764C292.785 34.1932 289.248 34.2058 284.531 33.8693C283.351 33.5202 282.172 33.5244 280.993 33.5286C278.635 33.537 278.635 33.537 276.274 32.8388C275.094 32.4897 273.913 31.7872 271.555 31.7956C270.376 31.7998 266.839 31.8125 265.66 31.8167C257.407 31.8461 249.156 32.2289 239.724 32.2626C236.187 32.2752 235.008 32.2795 232.653 32.9945C230.297 33.7096 231.479 34.4121 229.123 35.1272C226.769 36.1956 217.336 35.876 213.798 35.5353C200.828 35.2282 187.859 35.2745 176.071 35.67C174.892 35.6742 173.714 36.0317 171.356 36.0401C167.819 36.0528 163.101 35.3629 159.564 35.3756C152.489 35.0475 143.054 34.0212 137.164 35.4555C135.986 35.8131 137.167 36.5156 135.99 36.8731C134.811 36.8773 131.274 36.8899 131.274 36.8899C130.095 36.8942 128.917 37.2517 127.738 37.2559C124.201 37.2685 121.845 37.6303 118.308 37.6429C112.413 37.664 106.518 37.685 100.623 37.7061C95.9074 37.7229 91.1928 38.0931 85.2992 38.4675C82.9413 38.4759 80.5833 38.4843 79.4056 38.8418C77.0503 39.5569 78.2319 40.2594 74.6962 40.6254C73.5172 40.6296 69.9802 40.6422 68.8013 40.6464C66.4434 40.6548 62.9064 40.6675 60.5473 40.3225C59.3683 40.3268 59.3669 39.9734 59.3669 39.9734C58.188 39.9776 58.1881 39.9776 57.0091 39.9818C52.292 39.6453 48.75 38.2446 45.2119 37.9039C40.4934 37.2141 35.7777 37.2309 31.0606 36.8944C25.1645 36.5621 19.2657 35.5232 12.1919 35.5484C3.93916 35.5779 -4.31486 35.254 -12.5689 34.9302C-14.9269 34.9386 -16.1058 34.9428 -18.4637 34.9512C-23.1796 34.9681 -25.5377 34.9765 -29.077 34.2824C-31.4363 33.9375 -33.7941 33.9459 -36.1534 33.601C-37.3323 33.6052 -37.3336 33.2519 -38.5125 33.2561L-39.6915 33.2603C-39.6915 33.2603 -40.8705 33.2645 -40.8693 33.6179C-43.2259 33.9796 -45.5837 33.988 -47.9416 33.9965C-50.2996 34.0049 -52.6562 34.3666 -53.8352 34.3708C-55.0141 34.3751 -55.0131 34.7284 -56.1921 34.7326C-57.371 34.7368 -59.7289 34.7452 -60.9078 34.7494C-63.2657 34.7579 -65.6225 35.1196 -66.8002 35.4772C-71.5185 34.7873 -75.0555 34.8 -78.5924 34.8126C-80.9503 34.821 -83.3082 34.8294 -84.4872 34.8336C-86.8464 34.4887 -89.2057 34.1438 -91.5636 34.1522C-95.0993 34.5182 -96.2742 35.5824 -98.6285 36.6508C-99.8062 37.0084 -98.6272 37.0042 -100.984 37.3659C-103.342 37.3743 -105.7 37.3828 -106.879 37.387C-112.774 37.408 -117.491 37.0715 -122.208 36.735C-128.104 36.4027 -135.179 36.0747 -141.074 36.0957C-146.97 35.7634 -152.866 35.4311 -159.94 35.4564C-165.835 35.4774 -170.546 36.9076 -176.44 36.9287C-183.513 37.3073 -192.946 36.9876 -198.845 35.9486C-200.025 35.5995 -202.384 35.2546 -203.563 35.2588C-205.921 35.2672 -207.1 35.2714 -208.279 35.2757C-212.993 35.6458 -218.89 35.3135 -223.605 35.3304C-227.142 35.343 -230.679 35.3556 -234.216 35.3683C-236.574 35.3767 -238.932 35.3851 -241.29 35.3935C-242.469 35.3977 -241.29 35.3935 -243.649 35.0486C-246.008 34.7037 -248.367 34.3588 -250.725 34.3672C-260.158 34.0475 -268.414 33.3703 -277.847 33.0507C-282.564 32.7142 -286.101 32.7268 -289.638 32.7394C-291.995 32.7479 -296.714 32.058 -299.071 32.4198C-302.605 33.1391 -301.421 34.5482 -302.598 35.2591C-303.77 37.03 -307.307 37.0426 -312.024 36.7061C-317.92 36.3738 -322.64 35.3307 -328.534 35.705C-332.069 36.071 -335.603 36.7903 -339.14 36.8029C-343.856 36.8198 -347.394 36.4791 -352.11 36.4959C-355.647 36.5085 -359.184 36.5212 -361.543 36.1763C-366.262 35.4864 -369.801 34.7924 -375.696 34.8134C-379.233 34.8261 -382.77 34.8387 -386.307 34.8513C-394.56 34.8808 -399.275 34.8976 -406.345 35.9829C-408.702 36.3446 -409.88 36.7022 -412.238 36.7106C-416.954 36.7274 -421.672 36.0376 -425.21 35.6969C-427.569 35.352 -431.105 35.7179 -433.464 35.373C-435.823 35.0281 -437.004 34.679 -439.361 34.6874C-441.719 34.6958 -444.078 34.7043 -447.616 34.3635C-449.975 34.0186 -451.155 33.6695 -453.514 33.3246C-454.693 33.3288 -458.23 33.3414 -458.231 32.9881C-461.768 33.0007 -464.127 32.6558 -467.664 32.6684C-473.558 33.0428 -478.269 34.473 -482.982 35.1965C-488.873 36.2776 -492.407 36.9969 -499.481 37.0221C-504.197 37.039 -507.734 37.0516 -512.45 37.0684C-517.166 37.0853 -520.703 37.0979 -525.42 36.7614C-530.137 36.4249 -533.673 36.7909 -538.39 36.4544C-540.749 36.1095 -543.109 35.4112 -545.469 35.0663C-547.827 35.0747 -550.184 35.0831 -551.363 35.0873C-553.721 35.0958 -557.258 35.1084 -559.616 35.1168C-561.974 35.1252 -565.511 35.1379 -567.869 35.1463C-571.406 35.1589 -571.405 35.5122 -573.761 35.874C-579.654 36.6017 -587.906 36.6312 -594.98 36.6564C-598.517 36.6691 -600.876 36.3241 -604.413 36.3368C-607.95 36.3494 -610.308 36.3578 -613.845 36.3705C-619.74 36.3915 -625.635 36.4126 -631.529 36.4336C-635.066 36.4462 -638.603 36.4589 -642.138 37.1782C-644.493 37.8933 -645.67 38.6041 -649.206 38.6168C-651.564 38.6252 -652.743 38.6294 -655.101 38.6378C-664.533 38.6715 -675.145 38.356 -683.396 38.7388C-685.754 38.7473 -688.11 39.4624 -690.466 39.8241C-692.823 40.1859 -696.36 40.1985 -698.718 40.2069C-701.076 40.2153 -704.612 40.5813 -706.971 40.2364C-708.151 39.8873 -710.513 38.8357 -711.693 38.4865C-717.592 37.4476 -722.302 38.8778 -729.377 38.5497C-732.916 38.209 -732.918 37.5023 -735.277 37.1574C-742.35 37.536 -743.53 37.1869 -745.888 37.1953C-748.247 36.8504 -749.427 36.5012 -752.963 36.8672C-757.678 37.2374 -761.21 38.6633 -764.743 39.736C-765.922 39.7402 -767.102 39.3911 -768.282 39.0419C-769.462 38.6928 -771.82 38.7012 -774.177 39.063C-776.536 38.7181 -776.539 38.0114 -778.898 37.6665C-780.077 37.6707 -782.435 37.6791 -783.615 37.33C-785.974 36.9851 -789.511 36.9977 -791.87 36.6528C-795.407 36.6654 -798.944 36.678 -802.481 36.6907C-803.66 36.6949 -807.197 36.7075 -808.376 36.7117C-809.555 36.7159 -809.557 36.0093 -810.738 35.6601C-811.919 34.9577 -816.636 34.6212 -818.995 34.2763C-823.715 33.2331 -830.788 33.6117 -836.684 33.2794C-837.863 33.2836 -837.864 32.9303 -839.043 32.9345C-841.401 32.9429 -844.936 33.3089 -847.296 32.964L-848.475 32.9682C-850.835 32.2699 -852.017 31.5674 -853.198 30.865C-855.56 29.8134 -857.917 30.1752 -862.631 30.5453C-869.702 31.2773 -876.772 32.3625 -881.483 33.7927C-881.482 34.146 -883.837 34.8611 -886.194 35.2229C-887.373 35.2271 -887.373 35.2271 -888.553 34.878C-889.733 34.5288 -890.915 33.8264 -892.095 33.4773C-895.635 32.7832 -900.349 33.1534 -903.885 33.5194C-908.599 33.8895 -912.135 34.2555 -915.671 34.6215C-920.385 34.9916 -925.102 34.6551 -928.639 34.6678C-932.176 34.6804 -933.357 34.3313 -936.895 33.9906C-945.15 33.3134 -954.58 33.7004 -962.832 34.0832C-968.726 34.4576 -972.262 34.4702 -976.978 34.487C-979.336 34.4954 -984.053 34.1589 -986.41 34.5207C-987.588 34.8783 -987.587 35.2316 -988.764 35.5891C-989.941 36.3 -991.12 36.3042 -993.476 36.666C-997.011 37.3853 -1000.55 37.7512 -1004.08 38.1172C-1007.62 38.4832 -1012.33 38.1467 -1017.05 38.1635C-1022.95 37.8312 -1030.02 38.2098 -1035.91 38.2309C-1039.45 38.2435 -1041.81 38.2519 -1045.34 38.6179C-1047.7 38.9796 -1050.06 38.9881 -1052.42 39.3498C-1058.31 39.7242 -1063.03 39.3877 -1068.92 39.4087C-1072.46 39.4214 -1077.17 39.4382 -1080.71 39.4508C-1084.25 39.1101 -1086.61 38.7652 -1090.15 38.7779C-1098.4 38.454 -1107.84 36.721 -1117.27 37.8147C-1119.62 38.1764 -1120.8 38.534 -1121.98 38.5382C-1123.16 38.5424 -1125.52 38.5508 -1126.69 38.555C-1131.41 38.5719 -1134.95 38.9378 -1138.48 39.6571C-1143.19 40.3806 -1146.73 40.7466 -1150.26 41.8192C-1151.44 42.1768 -1153.8 42.1852 -1158.51 42.202C-1162.05 42.2147 -1164.41 42.2231 -1167.94 42.5891C-1170.3 42.9508 -1171.48 42.955 -1172.66 42.9592C-1177.38 42.9761 -1183.27 42.6438 -1187.99 42.6606C-1195.06 42.6859 -1198.6 41.6385 -1204.5 40.5995C-1206.86 40.2546 -1209.22 40.263 -1212.76 39.9223C-1213.93 39.9265 -1215.12 39.2241 -1216.29 39.2283C-1219.83 38.8876 -1224.55 39.2578 -1226.91 39.2662C-1237.52 39.3041 -1248.13 39.6953 -1258.74 39.3798C-1263.45 39.3967 -1266.99 38.3493 -1271.71 38.0128C-1282.32 37.6974 -1291.76 36.671 -1302.37 36.3556C-1310.62 36.0317 -1318.88 36.0612 -1327.13 37.504C-1329.48 37.8657 -1330.66 38.5766 -1333.02 38.9384C-1337.73 39.3086 -1344.8 39.3338 -1349.52 39.3507C-1361.31 40.0994 -1373.09 40.8482 -1384.88 40.8903C-1388.42 40.9029 -1393.14 40.9198 -1396.68 39.8724C-1400.22 39.5317 -1400.22 38.825 -1404.93 38.4885C-1413.19 38.1646 -1428.51 38.926 -1434.4 40.7138C-1437.93 41.7864 -1439.11 42.8506 -1441.46 43.919C-1442.64 44.2766 -1441.46 44.2724 -1443.82 44.2808C-1445 44.6383 -1450.89 44.3061 -1453.25 44.3145C-1455.61 44.3229 -1460.33 44.3397 -1462.68 44.7015C-1466.22 45.4208 -1470.93 46.851 -1475.65 46.5145C-1480.36 46.178 -1483.9 45.1306 -1488.62 45.1474C-1494.51 45.1685 -1498.05 44.8278 -1503.95 44.1422C-1508.67 43.8057 -1514.56 43.4734 -1519.28 43.4902C-1526.35 43.5155 -1532.25 43.5365 -1539.32 43.5618C-1554.65 43.6165 -1568.79 45.0804 -1584.12 45.1351C-1587.65 45.1477 -1591.19 45.5137 -1594.73 45.5263C-1601.8 45.5516 -1610.05 45.2277 -1617.13 45.6063C-1623.02 45.9807 -1628.91 47.0617 -1633.62 47.7852C-1635.98 48.147 -1639.52 48.8663 -1641.87 48.8747C-1643.05 48.8789 -1644.23 48.8831 -1645.41 48.8873C-1647.77 49.2491 -1648.94 49.6066 -1651.3 49.9684C-1653.66 50.3302 -1657.19 50.6961 -1659.55 50.7045C-1668.98 50.7382 -1678.41 51.4786 -1687.84 51.5122C-1697.28 51.5459 -1693.73 54.7133 -1703.16 54.747C-1706.7 54.7596 -1710.23 54.7723 -1713.77 54.7849C-1716.13 54.7933 -1717.31 55.1509 -1719.66 55.1593C-1720.84 55.1635 -1722.02 55.1677 -1723.2 55.1719C-1725.56 55.1803 -1725.56 55.5336 -1727.92 55.5421C-1731.45 55.5547 -1733.81 55.5631 -1737.35 55.5757C-1739.7 55.5842 -1740.88 55.9417 -1742.06 56.2993C-1745.6 56.6652 -1749.15 52.7912 -1752.68 52.8038C-1756.22 52.8164 -1759.76 52.829 -1763.29 52.8417C-1765.65 52.8501 -1769.2 49.6827 -1771.56 49.3378C-1775.1 48.6437 -1779.83 45.4806 -1783.36 45.4932C-1786.9 45.5058 -1789.26 45.5142 -1792.79 45.5269C-1795.15 45.5353 -1797.51 45.1904 -1799.87 45.9055C-1805.76 47.6932 -1803.39 48.7448 -1811.65 48.0676C-1812.83 48.0718 -1815.19 47.3735 -1817.55 47.382C-1821.09 47.0412 -1823.44 46.6963 -1826.98 46.709C-1828.16 46.7132 -1841.14 42.8728 -1841.14 42.8728L-1841.23 18.1393C-1840.05 18.1351 -1836.51 20.5958 -1835.33 20.5916C-1831.79 20.9323 -1828.25 21.9797 -1824.71 22.3204C-1822.35 23.0186 -1819.99 23.3635 -1816.46 22.9976C-1809.38 22.619 -1808.2 22.2614 -1799.95 22.9386C-1798.77 22.9344 -1796.41 23.2794 -1795.23 23.6285C-1791.69 23.6158 -1788.15 24.3099 -1783.44 24.6464C-1777.54 24.9787 -1778.72 24.6295 -1775.19 24.2636C-1770.47 23.5401 -1764.57 24.579 -1759.86 24.5622C-1757.5 24.5538 -1752.78 24.8903 -1750.43 24.5285C-1748.07 24.5201 -1746.89 23.8092 -1745.71 23.805C-1743.36 23.4432 -1739.82 23.784 -1736.28 23.7713C-1731.57 23.4012 -1725.67 22.6734 -1720.96 23.0099C-1716.24 22.9931 -1710.35 23.3254 -1705.63 24.0152C-1704.45 24.3643 -1703.27 24.7135 -1700.91 24.705C-1699.73 25.0542 -1697.37 25.0457 -1696.19 25.0415C-1693.83 25.3865 -1692.65 25.3822 -1690.3 25.3738C-1687.94 25.3654 -1683.22 25.7019 -1682.04 24.991C-1680.87 24.6335 -1680.87 23.5735 -1678.51 23.2117C-1674.98 22.4924 -1670.26 22.8289 -1666.72 22.8163C-1657.29 22.4293 -1647.86 22.3956 -1638.43 21.3019C-1636.08 20.9402 -1629.01 19.1482 -1625.47 19.4889C-1624.29 19.4847 -1623.11 19.8338 -1623.11 20.1872C-1619.57 20.5279 -1617.22 20.5195 -1613.68 20.5068C-1607.78 20.4858 -1601.89 20.8181 -1594.81 21.1461C-1590.1 21.1293 -1584.2 21.4616 -1579.49 21.0914C-1575.95 20.7255 -1574.77 20.0146 -1572.42 19.2995C-1570.06 18.5844 -1570.06 18.2311 -1566.53 17.8651C-1564.17 17.8567 -1561.81 17.8483 -1558.28 17.8356C-1555.92 17.8272 -1552.38 17.4612 -1550.02 17.4528C-1547.67 17.4444 -1545.31 17.0826 -1542.95 17.4276C-1541.77 17.7767 -1540.59 18.1258 -1540.59 18.4792C-1539.41 19.1816 -1539.41 19.5349 -1537.05 19.5265C-1534.69 19.5181 -1531.16 19.1521 -1528.8 19.1437C-1526.44 19.1353 -1524.08 19.1269 -1522.9 19.1227C-1520.54 19.1143 -1520.54 19.4676 -1518.19 19.1058C-1517.01 19.1016 -1515.83 18.7441 -1513.47 18.7357C-1509.94 18.3697 -1507.58 18.0079 -1505.22 17.6462C-1501.69 17.2802 -1499.33 17.2718 -1494.61 17.255C-1488.72 17.2339 -1482.82 17.2129 -1478.11 17.196C-1473.39 17.1792 -1468.68 16.809 -1465.14 16.7964C-1463.96 16.7922 -1462.78 17.1413 -1461.6 17.1371C-1460.42 17.1329 -1459.25 16.7753 -1458.07 16.4178C-1454.53 16.0518 -1453.35 15.6943 -1452.18 14.9834C-1452.18 14.6301 -1452.18 14.2767 -1451 14.2725C-1448.64 14.2641 -1448.64 14.9708 -1446.28 15.3157C-1442.74 16.0097 -1443.92 16.3673 -1440.38 16.3546C-1438.03 16.3462 -1435.67 16.6911 -1433.31 16.6827C-1428.59 17.0192 -1423.87 17.3557 -1419.16 17.6922C-1415.62 18.0329 -1413.26 18.3778 -1410.9 19.0761C-1407.36 19.4168 -1403.83 18.6975 -1401.47 18.3357C-1397.93 17.9698 -1394.4 17.6038 -1389.68 17.587C-1380.25 17.2 -1368.46 16.8045 -1360.21 18.1884C-1355.49 18.8782 -1354.3 19.934 -1349.59 19.5639C-1342.52 19.1853 -1337.81 17.7551 -1330.73 17.7298C-1327.2 17.7172 -1323.66 17.7046 -1320.12 17.6919C-1317.76 17.6835 -1313.05 17.3133 -1310.69 17.6583C-1307.15 17.999 -1307.15 19.4123 -1302.43 19.7488C-1301.25 19.7446 -1300.07 19.7404 -1298.89 19.7362C-1297.72 19.3786 -1296.54 19.0211 -1294.18 18.6593C-1290.65 17.5867 -1283.58 16.8548 -1278.86 16.8379C-1276.5 16.8295 -1274.15 16.4677 -1271.79 16.4593C-1268.25 16.4467 -1265.89 16.4383 -1262.36 16.4257C-1261.18 16.4214 -1260 16.4172 -1258.82 16.0597L-1257.64 15.7021C-1255.29 15.3404 -1251.75 15.3278 -1249.39 15.6727C-1249.39 16.7327 -1245.85 17.4267 -1243.49 17.7716C-1242.31 18.1208 -1242.31 18.1208 -1239.95 18.1123C-1236.41 18.0997 -1232.88 18.0871 -1229.34 17.7211C-1225.8 17.3552 -1223.45 16.6401 -1221.09 16.2783C-1215.2 15.1973 -1215.21 13.4306 -1210.5 12.0004C-1209.32 11.6429 -1206.96 12.3411 -1205.78 13.0436C-1203.41 14.4485 -1197.52 14.7808 -1192.8 15.4706C-1186.9 17.5696 -1181.01 16.8419 -1175.11 17.5275C-1169.21 17.8598 -1163.31 18.5454 -1156.24 18.5201C-1153.88 18.5117 -1151.52 18.5033 -1147.99 18.4907C-1145.63 18.4822 -1144.45 18.1247 -1143.27 18.1205C-1142.09 18.1163 -1139.74 18.1079 -1138.56 18.1036C-1138.56 17.7503 -1138.56 17.397 -1138.56 17.397C-1138.56 17.0436 -1137.38 16.6861 -1137.38 16.3328C-1136.21 15.9752 -1136.21 15.6219 -1136.21 15.2685C-1136.21 14.9152 -1135.03 15.2643 -1135.03 14.5577C-1133.86 14.2001 -1132.68 14.1959 -1130.32 14.1875C-1127.96 14.1791 -1126.78 13.4682 -1124.43 13.4598C-1118.53 13.4387 -1113.81 15.5419 -1109.09 16.5851C-1105.55 17.2791 -1103.19 17.9774 -1100.83 18.6756C-1097.29 19.723 -1096.11 19.3654 -1094.94 17.9479C-1093.76 16.8837 -1092.59 15.8195 -1090.23 14.751C-1089.05 14.3935 -1090.24 13.3377 -1087.88 13.3293C-1085.52 13.3208 -1084.33 15.79 -1081.97 16.1349C-1079.61 16.4798 -1076.08 16.1139 -1073.72 16.1054C-1069 16.0886 -1066.65 15.7268 -1061.93 15.3567C-1058.4 15.344 -1054.86 14.9781 -1051.33 14.6121C-1050.15 14.6079 -1047.79 14.2461 -1047.79 14.2461C-1046.61 13.8886 -1045.43 13.5311 -1045.44 13.1777C-1044.26 12.8202 -1041.9 12.1051 -1041.9 11.3984C-1039.55 11.0367 -1039.55 10.33 -1038.37 9.97244C-1034.84 9.25314 -1027.76 11.3479 -1025.4 12.3995C-1023.04 13.0977 -1021.86 13.0935 -1019.5 13.4384C-1011.24 14.1156 -1001.81 14.4353 -992.377 14.4016C-988.84 14.389 -987.66 14.7381 -985.304 14.023L-985.306 13.6697C-985.306 13.6697 -984.127 13.6655 -982.948 13.6613C-979.411 13.6486 -975.875 13.2827 -972.34 12.9167C-969.983 12.555 -967.629 11.4865 -964.092 11.4739C-961.735 11.1121 -959.375 11.8104 -957.015 12.1553C-953.479 12.1427 -948.763 12.1258 -945.226 12.1132C-941.689 12.1006 -938.151 12.4413 -934.614 12.4287C-928.718 12.761 -922.822 13.0932 -916.927 13.0722C-911.032 13.0511 -906.315 13.3876 -901.598 13.7241C-899.24 13.7157 -895.702 14.0564 -892.166 13.6905C-889.808 13.682 -890.986 14.0396 -890.984 14.3929C-890.983 14.7463 -889.8 15.8021 -887.445 15.087C-887.445 15.087 -887.445 15.087 -887.446 14.7336C-885.085 15.7852 -882.725 16.1301 -878.009 16.1133C-873.294 16.0965 -870.937 15.7347 -868.583 14.6663C-866.227 13.9512 -863.873 12.8828 -860.338 12.5168C-857.981 12.155 -854.443 12.4957 -852.085 12.4873C-848.548 12.4747 -845.01 12.8154 -841.47 13.5094C-840.29 13.8586 -837.932 13.8501 -836.753 13.8459C-833.216 13.8333 -833.219 13.1266 -834.402 12.0708C-834.404 11.3642 -833.226 11.0066 -829.689 10.994C-823.793 11.3263 -819.071 13.0761 -814.352 14.1193C-810.812 14.8133 -807.274 15.154 -803.737 15.1414C-801.379 15.133 -797.842 15.1204 -794.305 15.1077C-789.588 15.4442 -789.582 17.2109 -787.22 18.2625C-783.677 20.0165 -776.613 17.1646 -769.539 17.1393C-767.181 17.1309 -763.633 20.2983 -761.276 19.9366C-755.382 19.9155 -750.668 19.192 -750.676 17.072C-750.681 15.6586 -753.045 13.9004 -749.512 12.8277C-747.157 12.1127 -741.255 13.8583 -737.717 14.199C-734.178 14.893 -732.995 15.9488 -729.456 16.6429C-725.915 17.6903 -724.736 17.686 -721.198 18.0268C-717.66 18.3675 -714.119 19.4148 -711.759 20.1131C-709.398 20.8113 -705.87 18.3254 -702.332 18.6661C-699.973 19.011 -697.613 19.3559 -695.256 19.3475C-690.537 20.0373 -688.17 22.5022 -685.816 21.4338C-685.82 20.3738 -683.466 19.3054 -682.289 18.5945C-681.113 17.8836 -681.117 16.8236 -679.94 16.1127C-678.764 15.4019 -679.942 15.7594 -677.584 15.751L-676.405 15.7468C-674.047 15.7383 -671.689 15.7299 -668.151 16.0706C-665.793 16.0622 -664.614 16.058 -663.433 16.4071C-662.253 16.7563 -662.252 17.1096 -661.073 17.1054C-659.893 17.4545 -658.714 17.4503 -657.535 17.4461C-649.28 18.1233 -637.498 15.9612 -631.596 17.7068C-629.236 18.4051 -633.946 20.1886 -631.585 20.8868C-624.506 22.2749 -616.263 19.4188 -608.011 19.3893C-603.295 19.3725 -599.758 19.3598 -595.043 18.9897C-592.687 18.6279 -590.329 18.6195 -589.15 18.6153C-586.793 18.2535 -583.257 17.8875 -580.901 17.5258C-579.722 17.5216 -577.365 17.1598 -577.365 17.1598C-577.365 17.1598 -577.366 16.8065 -577.368 16.4532C-576.191 15.7423 -572.649 17.143 -571.469 17.4921C-570.289 17.8412 -570.289 17.8412 -569.109 18.1904C-565.568 19.2377 -560.852 19.2209 -557.315 19.2083C-554.957 19.1999 -550.241 19.183 -549.059 20.2388C-547.878 20.5879 -545.522 20.2262 -543.164 20.2178C-539.627 20.2051 -534.911 20.1883 -531.375 19.8223C-525.48 19.8013 -519.586 19.7802 -513.691 19.7592C-510.154 19.7466 -501.901 19.7171 -499.547 18.6487C-498.37 17.9378 -498.37 17.9378 -496.014 17.576C-493.657 17.2143 -492.478 17.2101 -488.941 17.1974C-486.583 17.189 -483.045 17.5297 -479.51 17.1638C-477.152 17.1553 -475.974 16.7978 -473.617 16.436C-470.082 16.0701 -467.726 15.355 -464.191 14.989C-461.833 14.9806 -461.833 14.9806 -460.652 15.3297C-457.114 15.6704 -454.756 15.662 -451.218 16.0027C-447.68 16.3434 -445.318 17.395 -441.779 18.0891C-440.599 18.4382 -437.062 18.4256 -434.704 18.4171C-429.987 18.7536 -426.45 18.741 -421.731 19.4308C-417.013 20.1207 -411.117 20.453 -406.401 20.4361C-405.222 20.4319 -404.043 20.4277 -402.864 20.4235C-399.328 20.0575 -396.974 18.9891 -394.618 18.6273C-393.44 18.2698 -392.261 18.2656 -392.263 17.5589C-392.265 17.2056 -392.266 16.8522 -392.268 16.1456C-391.089 16.1414 -389.91 16.1372 -388.732 16.1329C-384.016 16.1161 -380.479 16.1035 -375.763 16.0866C-374.584 16.0824 -369.869 15.7122 -368.689 16.0614C-367.51 16.0572 -368.688 16.4147 -367.508 16.7638C-367.506 17.1172 -366.326 17.4663 -365.146 17.8154C-361.606 18.5095 -358.071 18.1435 -355.714 17.7817C-353.357 17.42 -351.001 17.0582 -347.464 17.0456C-345.106 17.0372 -343.928 16.6796 -341.569 17.0246C-339.211 17.0161 -336.852 17.3611 -333.315 17.3484C-330.957 17.34 -329.777 17.6891 -327.419 17.6807C-326.24 17.6765 -326.241 17.3232 -326.241 17.3232C-325.062 17.319 -323.883 17.3147 -322.704 17.3105C-320.348 16.9488 -321.529 16.2463 -321.53 15.893C-321.533 15.1863 -321.532 15.5397 -320.354 15.1821C-320.355 14.8288 -319.177 14.4712 -319.179 14.1179C-318.001 13.7603 -316.825 13.0495 -315.647 12.6919C-309.755 11.9642 -303.856 13.0032 -297.96 13.3354C-295.601 13.6804 -294.422 13.6761 -292.061 14.3744C-290.881 14.7235 -288.522 15.0684 -287.342 15.4176C-284.981 16.1158 -284.98 16.4692 -281.442 16.8099C-279.084 16.8014 -277.905 16.7972 -275.546 17.1422C-274.367 17.1379 -272.007 17.4829 -270.83 17.1253C-268.472 17.1169 -267.295 16.406 -264.937 16.3976C-261.402 16.0316 -257.864 16.3723 -254.328 16.0064C-253.149 16.0022 -253.15 15.6488 -251.971 15.6446C-248.436 15.2786 -246.076 15.6236 -243.717 15.9685C-239 16.305 -233.106 15.9306 -228.391 15.9138C-226.033 15.9053 -222.496 15.8927 -220.138 15.8843C-217.78 15.8759 -215.422 15.8674 -213.067 15.1524C-211.889 14.7948 -210.711 14.4373 -208.353 14.4288C-205.995 14.4204 -205.994 14.7738 -204.814 15.1229C-203.634 15.472 -202.455 15.4678 -200.095 15.8127C-197.736 16.1576 -195.378 16.1492 -191.841 16.1366C-189.484 16.1282 -185.946 16.1155 -183.59 15.7538C-182.412 15.3962 -182.412 15.3962 -180.056 15.0345C-177.699 14.6727 -178.877 15.0303 -176.52 14.6685C-174.163 14.3068 -176.521 14.3152 -174.163 14.3068C-172.984 14.3026 -170.626 14.2941 -169.447 14.2899C-167.089 14.2815 -162.375 13.9113 -160.016 14.2562C-157.656 14.6012 -155.297 14.9461 -154.118 14.9419C-150.58 15.2826 -147.045 14.9166 -143.508 14.904C-138.793 14.5338 -135.256 14.5212 -130.541 14.151C-127.006 13.785 -123.47 13.4191 -118.754 13.4022C-115.219 13.0363 -108.147 12.3043 -106.964 13.3601C-104.603 14.4117 -101.066 14.3991 -98.7067 14.744C-93.9895 15.0805 -91.6355 14.0121 -86.9209 13.6419C-83.3853 13.2759 -79.8469 13.6167 -76.3101 13.604C-69.2363 13.5788 -62.1639 13.2002 -56.2678 13.5325C-53.9099 13.524 -52.7295 13.8732 -51.5493 14.2223C-48.0086 15.2697 -44.4692 15.9637 -38.5743 15.9427C-37.3954 15.9385 -36.2163 15.9342 -33.8584 15.9258C-31.5005 15.9174 -29.1438 15.5556 -25.6082 15.1897C-23.2514 14.8279 -20.8935 14.8195 -19.7159 14.462C-19.7159 14.462 -19.7171 14.1086 -18.5382 14.1044C-16.1815 13.7427 -15.0013 14.0918 -13.8236 13.7342L-13.8249 13.3809C-13.8249 13.3809 -11.4682 13.0192 -10.2892 13.0149C-4.39561 12.6406 1.50166 13.3262 6.21378 12.2493C7.39147 11.8918 8.57054 11.8876 10.9272 11.5258C13.2852 11.5174 15.6431 11.509 18.0022 11.8539C20.3614 12.1988 23.897 11.8329 26.2561 12.1778C26.2624 13.9445 34.5127 13.2083 38.0496 13.1957C42.7654 13.1788 46.2973 11.7529 49.8356 12.0936C51.0145 12.0894 53.3737 12.4343 55.7328 12.7792C56.9132 13.1283 58.0921 13.1241 59.2723 13.4732C62.8117 14.1673 65.17 14.1589 69.8857 14.142C73.4227 14.1294 76.9594 14.1168 80.4964 14.1041C84.0332 14.0915 87.5702 14.0789 89.9281 14.0705C93.4651 14.0578 95.8217 13.6961 99.3573 13.3301C101.715 13.3217 102.894 13.3175 105.251 12.9557C107.608 12.594 109.965 12.5856 112.323 12.5771C114.681 12.5687 118.216 11.8494 121.751 11.4834C125.287 11.1175 128.825 11.4582 133.54 11.088C137.077 11.0754 138.256 11.0712 140.615 11.4161C147.691 12.0975 154.764 11.7189 161.84 12.4003C164.199 12.7452 165.381 13.4477 167.74 13.7926C171.279 14.4867 175.995 14.4698 180.711 14.453C185.428 14.7895 190.144 14.7726 196.039 14.7516C203.113 14.7263 207.824 13.2962 214.895 12.5642C218.431 12.1983 223.148 12.5348 226.684 12.5221C230.222 12.5095 232.577 11.7944 236.112 11.4284C237.29 11.0709 239.647 10.7091 240.825 10.3516C245.538 9.62809 251.434 9.96037 256.149 9.5902C262.042 9.21582 270.291 8.12634 276.19 9.1653C279.729 9.85934 282.093 11.6176 286.811 11.9541C292.708 12.6397 298.604 12.972 303.324 14.0152C308.042 14.705 309.221 14.7008 313.936 14.3306C318.65 13.9604 325.727 14.6419 330.441 14.2717C331.62 14.2675 332.798 13.9099 333.976 13.5524C335.153 13.1948 336.332 13.1906 337.51 12.8331C339.866 12.118 337.506 11.7731 341.043 11.7605C343.401 11.752 344.58 11.7478 346.938 11.7394C350.475 11.7268 355.19 11.3566 358.726 11.344C358.726 11.344 361.084 11.3355 362.263 11.3313C363.444 11.6805 363.445 12.0338 364.625 12.3829C365.805 12.7321 368.163 12.7236 370.521 12.7152C374.058 12.7026 377.595 12.69 382.311 12.6731C385.848 12.6605 390.565 12.997 392.923 12.9886C395.281 12.9801 396.457 12.2693 398.816 12.6142C399.997 12.9633 399.997 12.9633 401.177 13.3124C402.356 13.3082 404.714 13.2998 407.07 12.938C411.785 12.5679 416.502 12.9044 421.218 12.8875C428.293 13.2156 434.187 12.8412 441.259 12.4626C445.974 12.0925 450.69 12.0756 454.225 11.7097C455.403 11.3521 457.76 10.9904 458.94 11.3395C461.299 11.6844 462.479 12.0335 463.661 12.736C464.841 13.0851 463.665 13.796 464.845 14.1451C466.025 14.4942 467.204 14.49 468.384 14.8392C469.563 14.8349 470.742 14.8307 471.921 14.8265C473.1 14.8223 473.101 15.1757 474.28 15.1714C476.638 15.163 477.815 14.4521 478.992 14.0946C482.528 13.7286 486.064 13.3627 489.601 13.35C493.136 12.9841 496.671 12.2648 500.206 11.8988C501.384 11.5413 508.457 11.1627 510.814 11.1543C509.638 11.8651 510.823 13.6276 512.004 13.9767C513.184 14.3259 513.183 13.9725 514.363 14.3216C515.542 14.3174 515.543 14.6708 516.722 14.6666C520.26 15.0073 524.975 14.6371 529.692 14.9736C534.409 15.3101 539.126 15.6466 545.021 15.6255C548.558 15.6129 550.914 15.2511 554.45 14.8852C557.986 14.5192 560.341 13.8041 561.516 12.7399C561.515 12.3866 562.692 11.6757 563.871 11.6715C565.049 11.6673 566.228 11.6631 567.409 12.0122C570.947 12.3529 573.304 11.9911 575.663 12.3361C576.843 12.6852 579.202 13.0301 580.382 13.3792C582.742 13.7241 583.923 14.4266 586.282 14.7715C589.822 15.4656 593.359 15.4529 596.896 15.4403C601.611 15.4235 603.964 14.0017 608.68 13.9849C611.038 13.9764 612.218 14.3256 614.574 13.6105C615.752 13.2529 614.57 12.5505 615.749 12.5463C616.927 12.1887 619.285 12.1803 621.642 12.1719C626.357 11.8017 631.072 11.4315 636.967 11.4105C641.682 11.3936 648.757 11.7217 653.47 10.6449C654.647 10.2873 654.646 9.93399 655.824 9.57645C657.003 9.57224 660.539 9.55961 662.898 9.55119C666.434 9.53856 668.793 9.53014 672.331 9.87085C675.869 10.2116 678.23 11.2631 681.767 11.2505C684.125 11.2421 686.483 11.2337 687.662 11.2295C690.02 11.221 692.379 11.566 693.559 11.9151C694.74 12.2642 697.099 12.6091 698.279 12.9583L699.46 13.3074C701.819 13.6523 705.352 12.5797 707.712 13.2779C710.074 14.3295 714.788 13.9593 715.97 14.6618C715.97 14.6618 715.971 15.0151 717.15 15.0109C718.329 15.0067 719.508 15.0025 719.508 15.0025C724.224 14.9857 727.761 14.973 732.477 14.9562C739.55 14.5776 745.439 13.1432 753.692 13.1137C757.229 13.1011 759.587 13.0927 763.123 13.0801C764.303 13.0758 765.483 13.425 766.662 13.4208C769.02 13.4123 770.2 13.7615 772.558 13.7531C774.916 13.7446 778.453 13.732 780.812 14.0769C783.171 14.4218 783.174 15.1285 785.533 15.4734C786.712 15.4692 789.071 15.8141 789.071 15.8141C791.429 15.8057 793.787 15.7973 796.145 15.7889C799.682 15.7762 803.219 15.7636 806.756 15.751C807.935 15.7468 807.935 15.7468 809.113 15.7426C811.47 15.3808 810.286 13.9717 812.645 14.3166C813.824 14.3124 811.47 15.3808 811.471 15.7341C812.653 16.4366 816.189 16.0706 818.547 16.0622C819.725 16.058 820.903 15.7005 822.082 15.6963C824.44 15.6878 824.443 16.3945 825.623 16.7436C826.803 17.0928 827.982 17.0886 830.34 17.0801C831.519 17.0759 832.698 17.0717 833.877 17.0675C835.057 17.4166 836.24 18.4724 838.597 18.1107C840.953 17.7489 842.13 17.038 843.307 16.6805C844.485 16.3229 845.664 16.3187 846.843 16.3145C848.022 16.3103 850.381 16.6552 851.559 16.2977C852.737 15.9401 852.735 15.5868 853.914 15.5826C856.272 15.5742 857.454 16.2766 858.634 16.6258C860.993 16.9707 859.808 15.2082 859.807 14.8549C859.805 14.5015 859.804 14.1482 860.983 14.144C863.338 13.4289 866.874 13.0629 870.411 13.0503C876.306 13.0293 883.38 13.004 890.453 12.9787C892.811 12.9703 892.811 12.9703 895.171 13.3152C897.53 13.6602 898.71 14.0093 901.07 14.3542C904.609 15.0482 908.145 15.0356 912.861 15.0188C915.219 15.0104 917.577 15.0019 919.935 14.9935C924.651 14.9767 927.006 14.2616 931.721 13.8914C934.078 13.5297 935.257 13.5254 937.615 13.517C939.973 13.5086 939.972 13.1553 942.328 12.7935C945.864 12.4276 950.581 12.7641 955.295 12.3939C956.474 12.3897 960.01 12.0237 961.189 12.0195C964.727 12.3602 967.093 14.4718 968.274 15.1743C969.456 15.8767 970.636 16.2258 974.174 16.5665C975.353 16.5623 975.353 16.5623 976.532 16.5581C976.532 16.5581 977.711 16.5539 977.712 16.9073C981.251 17.248 984.786 16.882 988.324 17.2227C993.041 17.5592 998.936 17.5381 1003.65 17.168C1008.37 16.7978 1013.08 16.0743 1016.61 15.7083C1018.97 15.3466 1022.51 14.9806 1024.86 14.6189C1026.04 14.2613 1027.22 14.2571 1028.4 13.8996C1031.93 13.5336 1035.47 13.8743 1039.01 14.215C1040.19 14.2108 1044.9 14.194 1047.26 14.5389C1049.63 15.5905 1054.34 16.2803 1057.88 16.621C1062.6 16.9575 1068.5 17.6431 1073.21 17.6263C1076.75 17.2603 1081.46 16.5368 1083.82 16.5284C1086.18 16.52 1089.72 17.5673 1090.9 17.9165C1092.08 17.9123 1092.08 18.2656 1093.26 18.2614C1094.44 18.6105 1095.62 18.6063 1096.8 18.9554C1099.16 19.3003 1100.34 19.6495 1102.69 19.2877C1106.23 18.9217 1107.4 18.2109 1109.76 17.4958C1112.12 16.7807 1114.47 16.7723 1116.83 16.0572C1120.36 15.3379 1121.54 15.3337 1125.08 15.321C1133.33 14.9382 1140.4 14.2063 1148.65 13.8235C1151.01 13.8151 1154.55 14.1558 1158.09 13.7898C1159.26 13.7856 1159.26 13.0789 1161.62 13.0705C1165.16 13.0579 1167.52 13.4028 1171.05 13.3902C1174.59 13.3775 1179.31 13.3607 1182.84 12.9947C1186.38 12.9821 1189.92 12.9695 1193.45 13.3102C1196.99 13.6509 1199.35 13.9958 1202.89 13.9832C1205.25 14.3281 1204.07 14.3323 1206.42 13.9706C1218.21 11.8084 1233.53 12.1071 1246.5 11.3541C1253.57 10.9755 1259.47 10.2478 1265.36 10.2267C1268.9 10.2141 1272.43 9.84812 1275.97 9.48216C1280.68 8.75865 1284.22 9.45269 1288.94 9.78918C1293.66 10.1257 1296.02 11.5306 1300.74 11.8671C1304.27 12.2078 1307.81 11.8418 1311.35 11.8292C1317.24 11.8082 1325.49 12.132 1330.21 11.0552C1332.56 10.6934 1333.74 9.98255 1337.28 9.96992C1339.64 9.9615 1341.99 9.95308 1344.35 9.94466C1347.89 9.93204 1353.78 10.2643 1357.32 9.89836C1363.21 9.17064 1369.11 9.50292 1376.18 9.47767C1378.54 9.46925 1382.08 9.45662 1384.43 9.4482C1387.97 9.43557 1391.51 9.77628 1395.05 9.76365C1397.4 9.75523 1399.76 9.39347 1402.12 9.38505C1408.01 9.364 1413.91 9.34296 1419.8 9.32191C1420.98 9.3177 1423.34 9.30928 1424.52 9.30507C1429.24 9.64156 1435.13 9.97385 1438.67 10.6679C1443.39 11.3577 1446.93 12.4051 1451.65 13.0949C1452.83 13.0907 1452.83 12.7374 1452.83 12.3841C1454 11.6732 1455.18 11.3156 1457.54 10.6005C1459.89 9.88545 1463.42 8.10614 1466.96 7.74018C1468.14 7.73597 1470.49 7.72755 1472.85 7.71913C1478.75 7.34474 1482.28 6.62544 1488.17 5.89772C1490.53 5.53597 1491.71 5.53176 1494.07 5.52334C1495.24 5.51913 1496.42 5.16158 1496.42 5.16158C1498.78 4.79983 1498.78 5.15316 1499.96 5.85563C1502.32 6.90721 1505.86 7.60125 1509.4 8.2953C1510.58 8.64442 1512.94 8.636 1514.12 8.98513C1516.48 9.33005 1518.84 9.67496 1521.2 9.66654C1522.38 9.66233 1523.56 10.0115 1525.91 10.003C1528.28 10.7013 1529.46 11.4038 1532.99 11.3911C1535.35 11.3827 1538.89 11.3701 1540.07 11.0125C1542.42 10.6508 1542.42 9.9441 1543.6 9.23322C1544.77 8.52234 1548.31 8.86305 1550.67 8.85463C1553.03 8.84621 1556.56 8.48024 1558.92 8.82516C1562.46 9.16587 1563.64 10.2217 1567.18 10.9157C1571.9 11.9589 1578.98 12.287 1583.69 12.2701C1589.59 12.2491 1595.48 11.8747 1600.19 10.4445C1602.55 9.72941 1604.91 10.0743 1608.44 10.415C1613.16 10.7515 1616.7 11.7989 1619.06 12.8505C1622.61 14.6045 1628.5 14.2302 1633.22 15.2733C1635.58 15.9716 1636.76 15.9674 1640.29 15.2481C1642.65 14.8863 1642.65 14.533 1645.01 14.1712C1646.18 13.8137 1647.36 13.1028 1648.54 13.0986C1650.9 13.0902 1652.08 13.7926 1654.44 13.4309C1655.61 13.0733 1653.25 12.3751 1654.43 12.0175C1656.79 11.3024 1659.15 12.354 1661.51 12.6989C1666.23 13.3888 1669.76 13.3761 1674.48 13.3593C1679.19 13.3425 1682.73 13.3298 1687.45 13.313C1690.98 13.3004 1694.52 13.2877 1698.06 13.6284C1700.42 13.9734 1701.6 15.0292 1705.14 15.0165C1706.32 15.0123 1708.67 15.0039 1709.85 14.9997C1712.21 14.6379 1713.39 13.9271 1715.74 13.5653C1722.81 12.1267 1731.07 13.8639 1736.96 12.7829C1738.14 12.7786 1738.14 12.4253 1738.14 12.072C1739.32 12.0678 1740.5 12.0636 1741.68 12.0593C1744.03 12.0509 1744.03 12.0509 1746.39 11.6892C1747.57 11.3316 1748.75 10.9741 1749.92 10.6165C1760.53 9.51864 1767.62 14.0867 1777.05 12.6397C1780.58 12.2738 1782.94 11.912 1786.48 11.546C1788.83 11.1843 1791.19 10.8225 1793.54 10.4608C1795.9 10.4524 1795.9 10.4524 1798.26 10.0906C1800.62 9.72885 1802.97 9.72043 1805.33 9.71201C1807.69 9.70359 1810.05 10.0485 1812.41 10.0401C1813.59 10.0359 1814.77 10.0317 1815.95 10.3808C1815.95 10.3808 1817.13 10.7299 1818.31 11.079C1819.49 11.0748 1819.49 11.0748 1820.66 11.0706C1821.84 11.0664 1823.02 11.4155 1824.2 11.4113C1825.38 11.4071 1827.74 11.3987 1828.92 11.7478C1830.1 11.7436 1831.28 12.0927 1833.64 12.0843C1838.35 12.4208 1843.07 12.0506 1847.79 12.7405C1848.97 13.0896 1851.32 13.0812 1852.5 13.077C1854.86 13.4219 1857.22 13.4135 1859.58 13.7584C1864.3 13.7416 1869.01 13.7247 1872.55 13.7121C1874.91 13.7037 1876.09 13.6995 1878.44 13.691C1880.8 13.3293 1881.98 12.6184 1884.33 12.2566C1886.69 11.8949 1892.59 12.2272 1894.94 12.2188C1897.3 12.2103 1898.48 12.2061 1900.84 12.551C1904.38 12.8917 1905.56 13.5942 1909.09 12.8749C1910.27 12.5174 1911.45 12.1598 1912.63 12.1556C1913.81 11.7981 1916.16 11.7896 1917.34 11.4321C1920.88 10.7128 1920.87 10.3595 1924.41 11.0535C1926.77 11.3984 1929.13 11.7433 1931.49 12.0883C1931.49 12.0883 1935.03 12.7823 1936.21 12.7781C1937.39 12.7739 1939.75 12.7655 1940.93 12.7612C1945.64 12.3911 1947.99 9.90931 1953.89 10.5949C1958.6 10.9314 1963.32 11.2679 1968.04 11.2511C1971.57 11.2385 1971.57 10.8851 1972.75 9.8209C1972.75 9.46757 1973.92 8.75668 1975.1 8.39914C1976.28 8.04159 1978.64 8.03317 1980.99 8.02475C1984.53 8.01213 1988.07 7.9995 1991.61 7.98687C1995.14 7.97424 1995.14 7.97424 1997.5 7.61248C2003.39 6.53143 2008.11 6.51459 2014 7.55355C2019.9 8.23917 2025.79 7.51145 2029.33 6.08548L2030.5 5.3746C2032.86 5.01284 2034.04 5.36197 2036.4 6.06022L2037.58 6.40934L2038.76 6.40514C2039.94 6.40093 2039.94 6.75426 2039.94 7.1076C2042.3 7.80585 2047.02 8.14235 2050.56 8.12972C2057.63 8.10446 2064.7 6.31252 2071.77 5.58059C2072.95 5.57638 2074.13 5.57217 2075.3 5.21463C2076.48 5.21042 2076.48 4.85708 2077.66 4.49954C2080.02 4.13778 2082.38 4.83603 2084.73 4.82762C2087.09 4.8192 2090.63 4.80657 2092.99 4.79815C2096.52 4.78552 2097.7 4.07464 2101.24 4.06201C2103.59 4.05359 2104.77 4.40271 2107.13 4.74763C2108.31 5.09676 2108.32 5.45009 2109.49 5.44588C2111.85 5.7908 2115.39 5.77817 2118.93 5.76554C2124.82 5.74449 2135.43 5.7066 2140.14 3.92309C2141.32 3.2122 2142.5 2.85466 2146.03 2.84203C2147.21 2.83782 2150.75 3.17853 2151.93 2.46765C2153.11 2.1101 2150.74 1.41185 2151.92 1.0543C2155.46 -0.0183316 2160.18 1.37817 2163.72 2.07221C2167.26 2.76626 2171.97 3.45609 2175.51 4.50347C2177.87 4.84838 2182.59 6.24489 2186.13 5.52559C2187.31 5.16804 2189.66 4.09961 2189.66 3.74628C2190.83 2.68206 2190.83 1.26872 2194.37 0.902755C2196.72 0.541 2199.08 0.532581 2201.44 0.524161C2204.97 0.511532 2208.51 0.852239 2212.05 0.839609C2214.41 1.18453 2217.95 1.52523 2220.3 0.810142C2221.48 0.452596 2220.3 0.10347 2221.48 0.09926C2222.66 0.0950503 2223.84 0.797512 2225.02 0.793302C2229.74 1.83647 2235.63 1.46209 2240.35 1.44525C2243.88 1.43262 2248.6 1.41578 2252.14 1.04981C2255.67 1.03718 2260.39 0.313675 2263.92 0.654381C2271 0.982459 2276.9 3.08142 2283.98 3.76284L2284.07 28.4963C2282.89 28.5005 2281.7 27.4447 2279.35 27.4532C2274.63 27.47 2269.91 27.4868 2265.2 27.5037C2261.66 27.5163 2258.12 27.5289 2254.59 27.1882C2253.41 27.1924 2252.23 26.8433 2251.05 26.8475C2249.87 26.4984 2247.51 26.8602 2246.33 26.8644C2242.8 26.877 2239.26 26.8896 2235.72 27.2556L2234.55 27.6131C2233.37 27.6173 2232.19 27.9749 2231.01 27.9791C2228.65 28.3409 2228.66 28.6942 2227.48 29.0517C2226.3 29.4093 2225.12 29.0602 2222.76 29.4219C2220.4 29.4303 2219.23 30.1412 2216.87 30.503C2214.52 30.8647 2212.16 30.5198 2209.8 30.8816C2207.44 30.89 2208.62 30.8858 2207.44 31.2433C2205.09 31.6051 2201.55 31.6177 2199.19 31.6261C2196.83 31.6345 2194.48 31.9963 2193.3 32.0005C2192.12 32.0047 2190.94 32.0089 2189.76 32.0131C2186.22 32.0258 2182.69 32.3917 2179.15 32.051C2176.79 32.0594 2172.08 32.0763 2170.89 31.3738C2168.53 30.6756 2169.71 29.6114 2167.35 28.9131C2163.81 27.5124 2152.02 27.5545 2147.3 28.278C2146.12 28.2822 2144.95 28.6397 2143.77 28.644C2141.41 29.0057 2141.41 29.7124 2141.42 30.4191C2140.24 31.1299 2139.06 32.1941 2137.89 32.905C2137.89 33.2584 2134.36 35.7443 2130.82 35.4036C2129.64 35.4078 2129.64 34.7012 2128.46 34.3521C2126.1 34.0071 2122.57 34.3731 2120.21 34.3815C2116.67 34.3942 2113.14 34.4068 2110.78 34.4152C2107.24 34.4278 2103.7 34.4405 2100.17 34.4531C2093.09 34.4783 2087.19 33.086 2081.3 32.7538C2074.22 32.0723 2067.15 32.8043 2060.08 32.8295C2056.54 32.8422 2051.82 32.5057 2048.29 32.8716C2043.57 33.2418 2040.04 33.6078 2035.32 33.9779C2034.14 33.9822 2034.14 33.9822 2031.78 33.9906C2029.43 34.3523 2027.07 34.7141 2025.89 35.425C2023.54 35.7867 2022.36 36.1443 2021.18 36.8551C2020.01 37.9194 2020.01 38.9794 2018.84 40.0436C2016.48 40.052 2016.48 38.992 2016.47 38.6387C2015.29 37.5829 2014.11 36.8804 2010.57 36.5397C2003.5 36.2116 1994.06 36.2453 1985.81 36.2748C1976.38 36.6618 1966.95 37.0488 1957.52 36.3758C1952.8 36.0393 1948.08 35.7028 1943.37 35.7196C1939.83 35.7323 1935.11 35.7491 1931.58 35.7617C1928.04 35.7744 1924.5 35.4337 1923.33 36.8512C1923.33 37.5579 1923.33 38.2646 1920.98 38.6263C1918.62 38.9881 1915.08 38.6474 1911.55 39.0133C1906.83 39.3835 1903.3 39.7495 1898.58 39.7663C1895.04 39.7789 1891.5 39.4382 1887.97 39.0975C1884.43 38.4035 1880.89 38.0628 1876.17 38.0796C1874.99 38.0838 1872.64 38.0922 1871.46 38.0965C1869.1 38.1049 1866.74 37.76 1863.2 37.4193C1859.66 37.4319 1856.13 37.4445 1852.59 37.4571C1850.23 37.4656 1847.88 37.474 1845.52 37.4824C1840.8 37.8526 1837.27 38.5719 1833.73 38.9378C1831.38 39.2996 1829.02 39.6613 1826.66 39.3164C1824.3 38.9715 1823.12 38.6224 1820.76 37.9241C1819.58 37.575 1819.58 36.8683 1818.4 36.1659C1817.22 35.8168 1814.86 35.4718 1813.68 35.1227C1811.32 34.7778 1807.78 34.7904 1805.42 34.7988C1801.88 34.8115 1801.89 34.8115 1800.7 33.7557C1799.52 32.6999 1797.16 33.0616 1794.81 33.4234C1791.27 34.1427 1786.56 34.5129 1783.02 34.5255C1780.66 34.5339 1779.48 34.8915 1777.13 34.8999C1775.95 34.9041 1775.95 34.9041 1774.77 34.9083C1773.59 34.9125 1772.41 35.27 1771.23 35.6276C1768.88 35.636 1765.34 35.6486 1762.98 35.6571C1752.37 35.695 1741.76 35.7328 1732.34 37.8865C1729.98 38.2483 1729.98 38.2483 1727.62 38.61L1726.44 38.9676C1724.09 39.3293 1721.73 40.0444 1719.38 40.4062C1717.02 40.7679 1715.84 40.7721 1713.48 40.4272C1712.3 40.4314 1709.94 39.7332 1709.94 39.7332C1706.4 39.0391 1704.04 38.3409 1700.5 38.0002C1699.32 37.6511 1696.97 38.0128 1696.97 37.6595C1695.79 37.3104 1695.78 36.957 1694.6 36.6079C1691.06 35.5605 1686.35 35.5774 1681.63 35.5942C1678.09 35.6068 1674.56 35.2661 1672.2 35.9812C1671.02 36.3388 1669.85 36.6963 1667.49 37.0581C1666.31 37.4156 1665.13 37.4198 1663.95 37.7774C1662.78 38.1349 1662.78 38.1349 1662.78 38.4882C1661.6 39.1991 1662.78 39.1949 1660.42 39.2033C1654.53 39.931 1646.27 38.5472 1640.38 37.8616C1639.2 37.8658 1638.02 37.5166 1636.84 37.5208C1635.66 37.5251 1635.66 37.1717 1634.48 36.8226C1633.3 36.8268 1632.12 37.1843 1630.94 37.5419C1628.59 38.257 1625.05 38.9763 1622.7 39.6914C1619.16 39.3507 1617.97 37.9415 1615.61 37.2433C1613.25 36.545 1610.89 36.2001 1608.54 36.2085C1605 36.2212 1605 36.5745 1603.83 37.6387C1602.65 38.7029 1602.66 40.1163 1599.12 39.7756C1593.22 39.7966 1589.68 36.9826 1583.78 37.0036C1580.24 37.0162 1576.71 37.7355 1571.99 37.7524C1568.46 37.765 1563.74 37.4285 1561.38 38.1436C1560.21 38.5011 1560.21 38.8545 1559.03 39.212C1557.85 39.5696 1553.14 39.2331 1551.96 39.2373C1549.6 39.2457 1546.06 38.905 1543.7 38.9134C1542.52 38.9176 1541.34 38.9218 1540.17 38.926C1537.81 39.6411 1538.99 41.0503 1539 42.1103C1533.1 41.4247 1528.38 39.6748 1522.48 38.6359C1518.94 37.9418 1516.58 37.9502 1513.04 37.6095C1510.69 37.2646 1510.69 37.2646 1508.33 37.273C1505.97 37.2815 1503.61 37.6432 1501.25 37.6516C1496.54 38.0218 1490.64 37.6895 1484.75 37.7106C1480.03 37.7274 1476.49 37.0334 1472.96 37.046C1469.42 37.0586 1465.88 37.4246 1463.53 37.0797C1459.99 36.739 1458.81 37.0965 1455.27 37.4625C1451.74 38.1818 1448.2 37.8411 1443.49 38.2112C1441.13 38.2197 1441.13 38.573 1438.77 39.2881C1437.6 39.6456 1434.06 40.0116 1431.7 40.02C1430.52 40.0242 1429.34 40.0284 1428.17 40.0326C1424.63 39.6919 1421.09 38.6446 1418.73 37.9463C1416.37 37.248 1412.83 36.9073 1409.29 36.5666C1408.11 36.5708 1405.75 36.2259 1404.57 36.2301C1403.39 36.2344 1403.39 36.2344 1403.39 36.2344C1402.22 36.5919 1401.04 36.9494 1401.04 37.3028C1399.86 37.6603 1396.32 37.3196 1393.97 37.328C1384.53 37.3617 1376.28 37.3912 1366.85 37.4249C1362.13 37.4417 1358.6 37.4543 1355.06 36.4069C1353.88 36.0578 1353.87 35.7045 1351.52 35.3596C1350.34 35.0104 1350.34 35.3638 1347.98 35.3722C1344.44 35.3848 1342.08 33.9799 1338.54 33.9925C1335.01 34.0052 1333.83 35.4227 1331.48 36.1378C1329.12 36.8529 1327.94 37.5638 1326.77 38.2747C1323.23 38.6406 1319.69 36.8866 1317.33 36.1883C1314.97 35.4901 1312.61 35.4985 1309.07 35.1578C1305.53 34.8171 1303.17 33.7655 1299.63 33.4248C1297.27 33.0799 1296.1 33.7908 1293.74 33.7992C1292.56 33.8034 1290.2 33.4585 1289.02 33.4627C1285.48 33.122 1284.3 32.7728 1280.77 32.7855C1278.41 32.7939 1274.87 32.8065 1272.51 32.4616C1270.15 32.1167 1268.98 32.4742 1266.62 32.1293C1264.26 32.1377 1260.72 31.4437 1258.36 31.4521C1254.82 31.1114 1252.46 30.7665 1248.93 30.7791C1246.57 31.1409 1244.21 31.5026 1240.68 31.8686C1235.96 32.2388 1231.25 32.9623 1226.54 33.3325C1224.18 33.6942 1221.82 33.3493 1219.46 33.3577C1217.1 33.3661 1218.28 33.7153 1215.93 33.7237C1210.03 34.0981 1204.14 33.7658 1198.24 33.7868C1189.99 33.8163 1182.91 31.7215 1175.84 32.8068C1174.66 33.1643 1177.02 33.8626 1175.84 34.2201C1172.31 35.2928 1171.13 36.357 1168.78 37.0721C1166.43 38.1405 1167.6 37.783 1164.06 37.4423C1161.71 37.0973 1159.34 36.3991 1156.99 36.4075C1153.45 36.4201 1154.63 37.1226 1151.1 37.4886C1141.67 37.8756 1132.21 31.9026 1125.15 34.0478C1122.79 34.7629 1127.51 36.8661 1126.34 37.9303C1125.16 38.9945 1120.44 36.1847 1118.08 36.5464C1115.72 36.9082 1116.9 37.2573 1115.73 37.6149C1114.55 37.9724 1112.19 38.3342 1109.83 38.3426C1106.3 38.3552 1101.58 38.0187 1098.04 38.0313C1094.51 38.044 1090.97 38.0566 1087.43 38.4226C1085.08 38.7843 1082.72 38.7927 1079.18 39.1587C1076.83 39.5205 1074.47 39.8822 1073.29 39.8864C1072.11 39.8906 1072.11 39.8906 1070.93 39.8948C1069.75 39.8991 1069.76 39.8991 1069.76 40.2524C1069.76 40.6057 1060.33 40.9927 1059.15 40.9969C1056.79 41.0054 1054.43 40.6604 1053.25 41.3713C1052.08 42.0822 1052.09 44.5556 1048.55 45.2749C1045.02 45.6408 1039.12 44.6019 1035.58 44.2612C1034.4 44.2654 1032.04 43.9205 1030.86 43.9247C1028.5 43.5797 1024.97 43.9457 1021.43 43.9583C1016.72 43.9752 1012 43.992 1008.46 44.0046C1006.1 44.0131 1004.93 44.3706 1003.75 44.3748C1000.21 44.3875 994.317 44.7618 991.956 43.7102C990.775 43.3611 990.774 43.0078 989.594 42.6587C987.235 42.3137 984.875 41.9688 982.516 41.6239C978.978 41.2832 976.619 40.9383 973.081 40.5976C970.723 40.606 967.186 40.6186 964.827 40.2737C962.469 40.2821 960.111 40.2906 957.753 40.299C954.216 40.3116 951.859 40.6734 948.323 40.686C944.786 40.6986 942.428 40.707 938.891 40.7197C936.533 40.7281 935.354 40.7323 935.356 41.439C935.357 41.7923 936.539 42.4948 935.361 42.8523C934.184 43.2099 928.29 43.5842 927.111 43.5884C923.574 43.6011 920.039 43.967 916.499 43.273C912.96 42.579 909.42 41.8849 905.881 41.1909C903.521 40.4926 901.159 39.441 896.442 39.1045C891.724 38.768 887.008 38.7849 882.296 39.8617C881.119 40.2193 879.941 40.5768 878.763 40.9344C877.587 41.6452 875.23 42.007 874.054 42.7179C870.521 43.7905 870.523 44.4972 870.528 45.9105C870.531 46.6172 870.533 47.3239 869.357 48.0348C866.999 48.0432 864.639 47.3449 863.457 46.6425C862.276 45.94 859.916 45.5951 857.556 44.8968C854.015 43.8495 849.295 42.8063 845.755 41.7589C844.574 41.4098 842.213 40.3582 839.855 40.3666C836.318 40.3792 835.143 41.4435 832.788 42.1585C830.432 42.8736 829.252 42.5245 826.893 42.1796C822.176 41.8431 818.64 42.2091 813.924 42.2259C809.207 41.8894 804.487 40.8462 798.591 40.5139C795.054 40.5266 786.802 40.556 784.447 41.6245C783.269 41.982 784.45 42.3311 783.272 42.6887C782.095 43.0462 780.916 43.0504 779.737 43.0547C777.379 43.0631 775.021 43.0715 772.663 43.0799C770.305 43.0883 767.946 42.7434 765.586 42.3985C764.407 42.4027 762.049 42.4111 760.87 42.4153C758.513 42.4238 756.154 42.4322 754.976 42.4364C752.619 42.7981 752.62 43.1515 750.262 43.1599C749.083 43.1641 746.725 43.1725 745.545 42.8234C743.185 42.1252 742.005 41.776 738.465 41.082C731.386 39.6939 724.309 38.6591 718.407 36.9135C716.047 36.2153 714.867 35.8661 712.506 35.1679C706.607 33.7756 698.352 33.4517 691.279 33.477C686.563 33.4938 681.848 33.864 675.955 34.2384C671.24 34.6086 667.705 35.3279 662.99 35.3447C655.917 35.7233 647.659 34.3394 640.585 34.3647C637.049 34.3773 634.691 34.3857 631.154 34.3984C627.617 34.411 626.438 34.4152 624.079 34.0703C622.898 33.7211 621.719 33.7254 619.36 33.3804C614.644 33.3973 608.747 32.7117 604.034 33.4352C601.677 33.7969 600.498 33.8011 598.141 34.1629C594.606 34.5289 591.073 35.6015 586.358 35.9717C585.18 36.3292 582.823 36.3376 581.644 36.3418C578.108 36.7078 573.39 36.3713 568.675 36.3881C562.78 36.4092 555.706 36.4345 549.814 37.1622C541.563 37.8983 538.036 40.3843 529.784 40.7671C527.426 40.7755 523.889 40.7881 521.53 40.4432C515.632 39.7576 509.735 39.072 502.66 38.7439C499.122 38.4032 495.582 37.7092 492.044 37.3684C488.506 37.0277 486.149 37.3895 483.789 36.6912C474.352 35.3116 463.744 36.0561 454.312 36.0898C451.954 36.0982 449.594 35.4 448.412 34.6975C447.232 34.3484 447.232 34.3484 446.052 33.9993C444.873 34.0035 444.872 33.6501 444.872 33.6501C443.691 33.301 442.512 33.3052 442.512 33.3052C441.332 32.9561 440.155 33.3136 437.797 33.3221C436.618 33.3263 434.26 33.3347 433.081 33.3389C430.723 33.3473 429.544 33.3515 427.186 33.36C426.007 33.3642 423.649 33.3726 422.471 33.7301C421.294 34.0877 421.294 34.0877 420.116 34.4452C418.938 34.8028 416.583 35.5179 415.404 35.5221C414.225 35.5263 413.046 35.5305 411.867 35.5347C408.33 35.5473 404.793 35.56 401.256 35.5726C401.256 35.5726 400.077 35.5768 398.898 35.581C398.898 35.581 397.719 35.5852 397.721 35.9385C403.619 36.9775 403.619 36.9775 402.442 37.335Z" fill="white"/>
</svg>
