<svg width="91" height="32" viewBox="0 0 91 32" fill="none" xmlns="http://www.w3.org/2000/svg">
<path d="M90.3997 8.08807C90.2521 7.94617 90.1783 7.80427 90.0307 7.66238C89.8831 7.59143 89.6617 7.59143 89.4403 7.59143C89.3665 7.59143 89.3665 7.52048 89.2927 7.52048C89.3665 7.44954 89.4403 7.37859 89.5141 7.37859C89.5879 7.30764 89.6617 7.30764 89.7355 7.23669C89.6617 7.16574 89.6617 7.09479 89.5879 7.02385C89.5141 6.9529 89.4403 6.74006 89.219 6.88195C88.9976 7.02385 88.7762 7.0948 88.5548 7.16574C88.0382 7.37859 87.6692 7.37859 87.4479 6.88195C87.3003 6.52721 87.0789 6.24342 87.0051 5.88868C87.0051 5.46299 86.6361 5.3211 86.1195 5.3211C85.8981 5.3211 85.6768 5.3211 85.4554 5.53394C85.3078 5.67584 85.0864 5.60489 84.9388 5.46299C84.865 5.39205 84.7912 5.3211 84.7174 5.25015C84.5698 5.03731 84.4222 5.1792 84.2746 5.25015C83.9794 5.3211 84.127 4.96636 83.9794 4.89541C83.9056 4.82446 83.8319 4.82446 83.6843 4.82446C83.2415 4.82446 82.9463 4.75351 82.5773 4.54067C82.2083 4.25688 81.6918 4.32783 81.3966 4.11498C81.0276 3.83119 80.6586 3.68929 80.2896 3.47645C79.7731 3.90214 79.6255 3.05076 79.1827 3.12171C79.1089 3.12171 79.0351 3.05076 78.9613 2.97982C78.6661 2.76697 78.371 2.76697 78.1496 2.97982C77.8544 3.19266 77.633 2.69602 77.4116 3.05076C77.4116 3.05076 77.1902 2.97982 77.0426 2.90887C76.5999 2.76697 76.2309 2.55413 75.7881 2.55413C75.3453 2.55413 74.9025 2.27034 74.386 2.27034C74.0908 2.27034 73.7956 2.27034 73.5004 2.27034C73.1314 2.27034 72.8363 2.12844 72.8363 1.84465C72.6887 1.34801 72.5411 1.56086 72.2459 1.70275C72.0983 1.7737 71.8769 1.84465 71.7293 1.9156C71.6555 1.9156 71.5079 1.98654 71.4341 1.9156C71.2866 1.6318 70.5486 1.56086 70.8438 0.993273C71.2128 0.851377 70.8438 0.709481 70.8438 0.780429C70.401 1.48991 69.663 1.34801 68.9989 1.27706C68.6299 1.20612 68.2609 1.06422 67.9657 0.851377C67.7443 0.709482 67.5968 0.780429 67.4492 0.851377C67.3016 0.993273 67.0802 0.993273 66.9326 0.851377C66.7112 0.709482 66.4898 0.638534 66.2684 0.638534C65.7519 0.638534 65.3091 0.638534 64.7925 0.638534C64.6449 0.638534 64.5711 0.567586 64.4973 0.42569C64.2021 0.42569 64.0546 0.780429 63.6856 0.709481C63.4642 0.638534 63.169 0.638534 62.9476 0.709481C62.431 1.13517 62.0621 0.709481 61.6193 0.709481C61.5455 0.709481 61.5455 0.567586 61.4717 0.496638C61.3979 0.354742 61.3979 0.212846 61.1765 0.354742C61.1027 0.42569 60.9551 0.567586 60.8813 0.638534C60.7337 0.780429 60.6599 0.638534 60.5861 0.496638C60.5861 0.42569 60.5861 0.283794 60.5861 0.212846C60.5861 0.141898 60.5861 -0.141894 60.3648 0.0709501C60.1434 0.212846 59.9958 0.354742 59.8482 0.567586C59.553 0.780429 59.3316 0.709481 59.0364 0.638534C58.4461 0.496638 57.9295 0.354742 57.3391 0.212846C56.7488 0.0709501 56.1584 0.567586 55.568 0.212846C54.9039 0.567586 54.1659 0.496638 53.4279 0.496638C53.2803 0.496638 53.1328 0.496638 52.9852 0.567586C52.7638 0.780429 52.4686 0.709481 52.1734 0.780429C51.8044 0.780429 51.3616 0.638534 51.0665 0.922325C50.9189 1.06422 50.8451 0.851377 50.6975 0.780429C50.5499 0.638534 50.3285 0.42569 50.1071 0.709481C49.6643 0.354742 49.1478 0.496638 48.705 0.496638C48.1146 0.496638 47.5243 0.354742 47.0077 0.709481C46.8601 0.780429 46.6387 0.709481 46.4911 0.638534C46.2697 0.496638 46.0483 0.42569 45.827 0.638534C45.6056 0.780429 45.3842 0.851377 45.1628 0.922325C44.9414 1.06422 44.7938 0.993273 44.6462 0.851377C44.4986 0.709482 44.4248 0.851377 44.2772 0.851377C42.9489 1.27707 42.7275 1.27706 41.5468 1.27706C41.3254 1.27706 41.1778 1.20612 41.0302 1.13517C40.735 1.06422 40.5874 1.41896 40.3661 1.34801C40.2185 1.27706 40.0709 1.27706 39.9233 1.27706C39.7757 1.20612 39.7019 1.06422 39.5543 1.20612C39.2591 1.41896 38.8901 1.34801 38.595 1.48991C38.226 1.70275 37.7832 1.84465 37.3404 1.84465C36.8239 1.9156 36.2335 1.84465 35.7169 1.84465C35.5693 1.84465 35.3479 1.6318 35.2003 1.70275C34.979 1.7737 34.7576 1.9156 34.5362 1.9156C34.241 1.9156 34.0196 2.27034 33.7244 2.19939C33.503 2.12844 33.3554 2.55413 33.0603 2.34128C32.7651 2.12844 32.5437 2.55413 32.2485 2.48318C32.0271 2.41223 31.7319 2.48318 31.5106 2.48318C31.2154 2.48318 30.994 2.76697 30.6988 2.76697C30.1084 2.69602 29.5919 3.12171 29.0015 3.05076C28.5587 2.97982 28.2635 3.12171 27.9683 3.47645C27.9683 3.5474 27.747 3.61835 27.6732 3.5474C27.1566 3.19266 26.7876 3.68929 26.271 3.61835C25.8283 3.5474 25.3117 3.61835 24.7951 3.61835C24.4999 3.61835 24.2048 3.68929 23.9834 3.90214C23.6882 4.25688 23.4668 4.18593 23.0978 3.97309C22.9502 3.90214 22.655 3.90214 22.5812 3.97309C22.1385 4.32783 21.6219 4.18593 21.1791 4.18593C21.0315 4.18593 20.9577 4.04403 20.9577 3.90214C20.9577 3.76024 20.9577 3.61835 20.8839 3.47645C20.8839 3.33456 20.8101 3.33456 20.6626 3.4055C20.515 3.5474 20.2936 3.61835 20.515 3.97309C20.6626 4.25688 20.5888 4.39877 20.2936 4.46972C20.2198 4.46972 20.0722 4.46972 19.9984 4.46972C19.6294 4.46972 19.6294 4.46972 19.4818 3.97309C19.4818 3.90214 19.4818 3.90214 19.4818 3.83119C19.3342 3.5474 19.1128 3.33455 18.8177 3.33455C18.5963 3.33455 18.5225 3.68929 18.6701 4.04403C18.6701 4.11498 18.7439 4.11498 18.7439 4.18593C18.8177 4.39877 18.6701 4.61162 18.4487 4.68257C18.3011 4.75351 18.1535 4.75351 18.0797 4.61162C18.0059 4.46972 18.0059 4.32783 17.9321 4.25688C17.6369 3.90214 17.4893 3.90214 17.1204 4.32783C16.9728 4.46972 16.8252 4.54067 16.6038 4.39877C16.3086 4.11498 15.9396 4.18593 15.6444 4.25688C15.3492 4.32783 15.1279 4.54067 15.0541 4.82446C14.9803 4.82446 14.9065 4.75351 14.8327 4.75351C14.3161 4.46972 13.7995 4.32783 13.5044 5.03731L13.4306 5.10825C13.283 5.03731 13.1354 4.89541 12.914 5.10825C12.6188 5.39205 12.3974 5.67584 11.9546 5.25015C11.5857 5.25015 11.0691 4.89541 10.8477 5.53394C10.8477 5.60489 10.6263 5.67584 10.4787 5.67584C10.1835 5.67584 9.88835 5.74678 9.59317 5.67584C9.22419 5.67584 8.929 6.03058 8.48623 5.95963C8.26484 5.95963 8.11725 6.17247 7.89586 6.38532C7.30549 6.811 6.78892 6.9529 5.82958 6.74006C5.68198 6.74006 5.53439 6.74006 5.3868 6.74006C5.01782 6.74006 4.87023 6.9529 4.94403 7.30764C5.01782 7.44953 5.09162 7.52048 5.16541 7.66238C5.23921 7.87522 5.23921 8.01712 5.01782 8.08807C4.13227 8.51375 3.5419 9.43608 2.43496 9.57797C2.36117 9.57797 2.28737 9.71987 2.28737 9.79082C2.21358 10.1456 1.40182 10.1456 1.62321 10.7841C1.62321 10.7841 1.40182 10.926 1.25423 10.9969C0.959047 11.2098 0.663863 11.4936 0.442475 11.7774C0.0734957 12.4159 0.221087 12.7706 0.959047 12.9125C1.25423 12.9835 1.54941 12.9125 1.8446 12.8416C2.21358 12.7706 2.43496 12.6997 2.73015 12.6997C3.09913 12.6997 3.39431 12.6287 3.6895 12.4159C3.91088 12.274 4.13227 12.203 4.35366 12.1321C4.42745 12.1321 4.50125 12.203 4.57505 12.203C4.57505 12.274 4.50125 12.274 4.50125 12.3449C4.35366 12.5578 4.13227 12.6287 3.91088 12.6997C3.6157 12.8416 3.91088 12.9125 3.98468 12.9125C4.13227 12.9125 4.27986 12.9835 4.27986 13.1254C4.35366 13.2673 4.20607 13.4801 3.91088 13.4801C3.39431 13.4092 3.09913 13.7639 2.65635 13.7639C2.36117 13.7639 2.28737 13.9058 2.13978 14.1896C2.06599 14.4024 1.91839 14.5443 2.13978 14.7572C2.28737 14.8991 2.28737 15.1119 2.36117 15.2538C2.58256 15.6085 2.36117 15.5376 2.28737 15.6085C2.21358 15.6795 2.06599 15.6795 2.06599 15.7504C1.99219 16.1052 1.8446 16.389 1.7708 16.6728C1.69701 17.0275 1.7708 17.4532 1.7708 17.8079C1.7708 18.0208 1.91839 18.1627 2.06599 18.3046C2.21358 18.5174 2.21358 18.5174 1.8446 18.7303C1.69701 18.8012 1.69701 19.014 1.7708 19.085C1.91839 19.2978 2.06599 19.4397 2.28737 19.5107C2.65635 19.5816 2.58256 19.7945 2.43496 20.0073C2.36117 20.1492 2.28737 20.2911 2.50876 20.2911C2.73015 20.3621 2.87774 20.433 2.87774 20.6459C2.87774 20.8587 2.87774 21.0006 3.02533 21.1425C3.24672 21.3553 3.46811 21.5682 3.6895 21.7101C3.91088 21.9229 3.91088 21.9229 4.27986 21.6391C4.35366 21.5682 4.50125 21.3553 4.57505 21.4972C4.72264 21.781 4.87023 21.9229 5.16541 22.0648C5.23921 22.0648 5.23921 22.2067 5.09162 22.2777C4.72264 22.3486 4.57505 22.4905 4.79643 22.8452C4.94403 23.0581 4.72264 23.129 4.64884 23.3419C4.64884 23.5547 4.64884 23.6966 4.64884 23.9095C4.50125 24.6189 4.87023 25.1156 5.4606 25.3994C5.82958 25.5413 5.97717 25.8251 6.27235 25.9669C6.49374 26.0379 6.86272 25.896 7.01031 25.6832C7.08411 25.6122 7.08411 25.3994 7.30549 25.5413C7.52688 25.8251 7.74827 26.1798 7.96966 26.4636C8.26484 26.7474 8.33864 26.8183 8.70762 26.4636C8.929 26.3217 9.0028 26.3926 9.15039 26.4636C9.37178 26.6055 9.59317 26.6055 9.81456 26.4636C9.96215 26.3217 10.1835 26.2507 10.1835 26.5345C10.1097 27.1021 10.5525 27.315 10.8477 27.5278C11.0691 27.6697 11.2167 27.315 11.5119 27.3859C11.807 27.3859 12.1022 27.3859 12.3236 27.5988C12.3974 27.6697 12.4712 27.6697 12.6188 27.6697C13.3568 27.7406 13.4306 27.7406 13.6519 28.0244C13.7995 28.1663 13.7995 28.3792 13.9471 28.5211C14.0947 28.663 14.2423 28.7339 14.4637 28.7339C14.5375 28.7339 14.6851 28.663 14.8327 28.592C14.9803 28.5211 15.0541 28.3082 15.2017 28.3082C15.6444 28.2373 15.5706 27.9535 15.6444 27.6697C15.6444 27.5987 15.7182 27.5278 15.792 27.5278C15.792 27.5278 15.8658 27.5988 15.9396 27.5988C16.0134 27.5988 16.0134 27.6697 16.0134 27.6697C16.161 28.0244 16.3086 28.3792 16.53 28.663C16.8252 29.0177 17.4155 28.663 17.7107 29.0177C17.7845 29.1596 18.0059 29.1596 18.0797 29.0177C18.3011 28.7339 18.7439 28.8758 18.8177 28.4501C18.8915 28.1663 19.2604 28.2373 19.4818 28.3082C19.6294 28.3082 19.8508 28.5211 19.9984 28.592C20.3674 28.663 20.2198 28.9468 20.2936 29.1596C20.515 29.2306 20.6626 29.3724 20.8101 29.5853C20.515 29.8691 20.6626 30.011 21.0315 30.0819C21.4005 30.5076 21.6957 30.1529 22.0647 30.0819C22.1385 30.1529 22.1385 30.2948 22.2123 30.2948C22.5075 30.3657 22.8026 30.3657 23.0978 30.3657C23.393 30.3657 23.5406 30.2238 23.6144 30.011C23.6882 29.7981 23.9096 29.7981 24.131 29.94C24.4261 30.2238 24.7951 30.5076 25.3117 30.5076C25.6069 30.8624 25.8283 30.3657 26.0497 30.4367C26.3448 30.5786 26.5662 30.6495 26.7876 30.3657C27.009 30.0819 27.2304 30.0819 27.5256 30.2948C27.6732 30.4367 27.8946 30.4367 28.0421 30.5786C28.1897 30.7205 28.3373 30.9333 28.4849 30.9333C28.6325 30.9333 28.7801 30.7205 28.9277 30.5786C29.0753 30.4367 29.2229 30.5786 29.2967 30.5786C29.6657 30.5076 30.0346 30.3657 30.3298 30.2948C30.3298 29.94 30.625 29.8691 30.9202 29.7981C30.994 29.7981 31.1416 29.6562 31.1416 29.6562C31.2892 29.7272 31.4368 29.7981 31.4368 29.94C31.5843 30.3657 31.8057 30.5786 32.2485 30.5076C32.7651 30.3657 33.0603 30.7914 33.503 30.7914C33.9458 30.7914 34.3886 30.6495 34.7576 30.9333C34.8314 31.0042 34.9052 31.0752 34.979 30.9333C35.2741 30.6495 35.6431 30.7914 35.9383 30.7205C36.3811 30.7205 37.3404 30.5076 37.7094 30.2948C37.7832 30.2238 37.857 30.2238 37.9308 30.2948L38.7425 30.5076C39.0377 30.7205 39.4067 30.8624 39.7757 31.0043C39.9971 31.0752 40.2185 31.0043 40.2923 30.7914C40.3661 30.5786 40.4399 30.4367 40.6612 30.4367C41.0302 30.5076 41.2516 30.1529 41.6206 30.0819C41.842 30.0819 41.9896 29.7981 42.2848 29.7981C42.7275 29.7981 42.6537 30.1529 42.8751 30.3657C43.1703 30.5786 43.5393 30.7914 43.8345 31.0043C44.1297 31.2171 44.2772 31.2171 44.5724 31.0752C44.8676 30.8624 45.3842 31.0042 45.6056 30.5786C45.6794 30.4367 45.6794 30.2948 45.827 30.2238C46.0483 30.1529 46.1221 30.3657 46.2697 30.4367C46.4911 30.6495 46.7863 30.9333 47.0077 31.1461C47.0815 31.2171 47.2291 31.2171 47.3029 31.2171C47.4505 31.1461 47.5243 31.0043 47.6719 31.0043C47.8194 31.0043 47.8932 31.2171 48.1884 31.0752C48.5574 30.8624 48.9264 30.7914 49.2954 31.0043C49.5168 31.1461 49.6643 31.0752 49.7381 30.9333C49.8857 30.7914 50.0333 30.6495 50.3285 30.7914C50.5499 30.9333 50.8451 30.9333 51.1403 30.7205C51.5092 30.5076 51.952 30.4367 52.0258 29.8691C52.0258 29.7272 52.3948 29.7272 52.5424 29.8691C52.69 30.011 52.7638 30.1529 52.9114 30.2948C53.1328 30.7205 53.5017 31.0043 53.8707 31.359C53.9445 31.4299 54.0183 31.359 54.0921 31.2171C54.0921 31.1461 54.1659 30.9333 54.1659 31.0043C54.3873 31.0043 54.6825 31.2171 54.7563 30.7205C54.7563 30.5786 54.9039 30.3657 55.0514 30.2238C55.199 30.011 55.568 29.94 55.7894 30.0819C55.937 30.1529 56.0108 30.2238 56.1584 30.3657C56.3798 30.6495 56.6012 30.5786 56.8963 30.3657C57.2653 30.1529 57.4867 30.2238 57.7081 30.5786C57.8557 30.7914 57.9295 30.8624 58.1509 30.7914C58.4461 30.6495 58.7412 30.4367 59.0364 30.2948C59.2578 30.2238 59.4792 30.2238 59.7006 30.3657C59.8482 30.5076 59.9958 30.6495 60.1434 30.7205C60.291 30.7914 60.4385 30.4367 60.5861 30.6495C60.7337 30.7914 60.9551 30.8624 61.1027 30.7205C61.3979 30.3657 61.8407 30.2238 62.2097 30.0819C62.6524 29.94 63.169 30.011 63.6118 29.7272C63.6856 29.6562 63.907 29.7272 64.0546 29.7981C64.3497 29.94 64.5711 30.011 64.7925 30.1529C65.0877 30.2948 65.2353 30.2238 65.4567 30.0819C65.8256 29.5853 66.3422 29.3724 67.0064 29.4434C67.3754 29.4434 67.523 29.6562 67.7443 29.8691C67.8181 30.011 67.8919 30.0819 67.9657 30.2238C68.1871 30.1529 68.1133 29.94 68.1133 29.7272C68.1133 29.5853 68.1133 29.4434 68.1133 29.3015C68.1871 29.1596 68.3347 29.0887 68.4085 29.0177C68.5561 28.8758 68.6299 29.0177 68.7775 29.0887C68.9251 29.1596 69.0727 29.1596 69.2203 29.0887C69.3679 29.0177 69.3679 28.8758 69.5892 29.0177C70.032 29.3015 70.401 29.3015 70.6224 28.7339C70.6224 28.663 70.77 28.663 70.8438 28.592C70.9914 28.5211 71.0652 28.4501 70.9176 28.3082C70.77 28.1663 70.6224 28.0954 70.401 28.0244C70.1058 27.8116 70.1058 27.5987 70.401 27.3859C70.77 27.0312 71.2865 27.315 71.5817 26.9602C71.7293 27.0312 71.9507 27.1021 72.0983 27.1731C72.2459 27.244 72.5411 27.244 72.6887 27.1731C72.9839 26.8893 73.2052 27.1731 73.4266 27.244C73.5004 27.315 73.5004 27.4569 73.5742 27.4569C73.8694 27.4569 74.1646 27.5278 74.4598 27.4569C74.6074 27.4569 74.6074 27.3859 74.5336 27.244C74.3122 26.9602 74.0908 26.6055 73.7956 26.3926C73.5004 26.1798 73.1314 26.0379 72.6887 26.0379C72.5411 26.0379 72.4673 25.896 72.3197 25.7541C72.2459 25.6832 72.2459 25.6122 72.3197 25.5413C72.4673 25.4703 72.9101 25.3994 73.3528 25.4703C73.5004 25.4703 73.7218 25.5413 73.7956 25.4703C74.0908 25.1865 74.5336 25.1865 74.9025 25.2575C75.3453 25.2575 75.7881 25.2575 76.2309 25.2575C76.3785 25.2575 76.5261 25.1865 76.5999 25.1156C76.4523 25.0446 76.3785 24.9737 76.2309 24.9737C76.1571 24.9737 76.1571 24.9027 76.1571 24.9027L76.2309 24.8318C76.7474 24.8318 77.264 24.6189 77.7806 24.477C77.8544 24.477 77.8544 24.477 77.9282 24.477C78.1496 24.477 78.371 24.477 78.4448 24.6189C78.5185 24.7608 78.5185 24.9027 78.5185 24.9737C78.9613 24.9737 79.0351 24.9737 79.0351 24.6189C79.0351 24.3351 79.1827 24.1223 79.3303 24.0514C79.9207 23.8385 80.2896 23.3419 80.8062 22.9162C81.249 22.5614 81.6918 21.9939 82.4297 22.4195C83.3153 22.0648 84.3484 22.2067 85.0864 21.4263C85.5292 21.2844 85.8243 21.0006 86.1195 20.7168C86.4885 20.2911 87.0789 20.6458 87.5216 20.433C87.743 20.2911 88.0382 20.2911 88.1858 20.0073C87.9644 19.7235 88.0382 19.6526 88.4072 19.5816C89.0714 19.5107 89.5879 19.1559 89.9569 18.6593C90.0307 18.5884 90.0307 18.4465 90.0307 18.3755C89.9569 18.1627 89.8831 17.9498 89.7355 17.737C89.5879 17.5241 89.4403 17.3822 89.2927 17.1694C89.1452 17.0275 89.5879 16.8147 89.2927 16.6018C88.85 16.389 89.2927 15.9633 88.9976 15.6795C88.9238 15.6085 88.9238 15.3957 88.9976 15.2538C89.2927 14.7572 89.3665 14.1896 88.9976 13.693C88.85 13.4801 88.9976 13.3382 89.0714 13.1963C89.2189 12.9835 89.2927 12.6997 89.3665 12.4868C89.1452 12.3449 88.9238 12.274 88.7024 12.1321C88.6286 12.0612 88.481 12.0612 88.4072 12.0612C88.2596 11.9902 88.2596 11.9193 88.4072 11.8483C88.85 11.6355 89.3665 11.4226 89.8093 11.2098C90.0307 11.0679 89.8831 10.9969 89.7355 10.926C89.5141 10.855 89.4403 10.7131 89.4403 10.5003C89.4403 10.3584 89.5141 10.2165 89.5879 10.1456C89.6617 10.2165 89.7355 10.2165 89.8093 10.2875C89.9569 10.2875 90.2521 10.0746 90.2521 10.0037C90.2521 9.93271 90.1783 9.86176 90.1045 9.86176C89.7355 9.57797 89.6617 9.50702 89.9569 9.22323C90.1045 9.08134 90.3259 8.86849 90.4735 8.7266C90.5473 8.5847 90.1045 8.22996 90.3997 8.08807ZM15.2017 4.96636C15.1279 4.96636 15.0541 4.96636 15.0541 4.89541C15.0541 4.89541 15.0541 4.82446 15.0541 4.75351C15.0541 4.75351 15.0541 4.75351 15.0541 4.82446C15.1279 4.82446 15.2017 4.89541 15.2755 4.89541C15.2017 4.89541 15.2017 4.96636 15.2017 4.96636ZM16.899 4.96636L16.8252 4.89541C16.8252 4.89541 16.8252 4.89541 16.8252 4.82446C16.8252 4.82446 16.8252 4.82446 16.8252 4.75351H16.899C17.0466 4.89541 17.0466 4.96636 16.899 4.96636ZM22.2861 30.011C22.2861 30.0819 22.2123 30.0819 22.1385 30.0819C22.1385 30.0819 22.1385 30.0819 22.0647 30.0819C22.0647 30.0819 22.0647 30.0819 22.1385 30.0819C22.1385 30.011 22.2123 29.94 22.2123 29.8691H22.2861C22.3599 29.94 22.2861 29.94 22.2861 30.011ZM71.2865 25.4703C71.139 25.4703 71.0652 25.4703 71.0652 25.3284C71.0652 25.2575 71.2128 25.2575 71.2865 25.2575C71.3603 25.2575 71.4341 25.3284 71.5079 25.3994C71.4341 25.3994 71.3603 25.4703 71.2865 25.4703ZM73.4266 27.0312C73.5004 26.9602 73.5742 27.0312 73.5004 27.1021C73.4266 27.1731 73.3528 27.1731 73.279 27.1731C73.3528 27.1731 73.3528 27.0312 73.4266 27.0312Z" fill="#4DA528"/>
</svg>
